<svg width="32" height="32" viewBox="0 0 32 32" fill="none" xmlns="http://www.w3.org/2000/svg">
<path d="M26.6667 16V29.3333H5.33332V16M16 29.3333V9.33329M16 9.33329H9.99999C9.11593 9.33329 8.26809 8.9821 7.64297 8.35698C7.01785 7.73186 6.66666 6.88401 6.66666 5.99996C6.66666 5.1159 7.01785 4.26806 7.64297 3.64294C8.26809 3.01782 9.11593 2.66663 9.99999 2.66663C14.6667 2.66663 16 9.33329 16 9.33329ZM16 9.33329H22C22.884 9.33329 23.7319 8.9821 24.357 8.35698C24.9821 7.73186 25.3333 6.88401 25.3333 5.99996C25.3333 5.1159 24.9821 4.26806 24.357 3.64294C23.7319 3.01782 22.884 2.66663 22 2.66663C17.3333 2.66663 16 9.33329 16 9.33329ZM2.66666 9.33329H29.3333V16H2.66666V9.33329Z" stroke="#3E3E3E" stroke-width="3" stroke-linecap="round" stroke-linejoin="round"/>
</svg>
