<svg width="374" height="316" viewBox="0 0 374 316" fill="none" xmlns="http://www.w3.org/2000/svg">
<g clip-path="url(#clip0_1302_4425)">
<path d="M155.737 37.1938C158.565 32.7142 161.917 27.9314 167.167 26.4687C173.246 24.7747 179.491 28.1398 184.788 31.4603C200.629 41.3911 215.885 52.1533 230.485 63.6975L230.469 63.8714C219.102 63.1208 207.736 62.3703 196.369 61.6198C188.157 61.0776 179.662 60.4605 172.405 56.7408C169.651 55.3293 166.966 53.4438 163.846 53.3124C159.969 53.1492 156.588 55.7418 153.931 58.4505C138.216 74.4736 133.668 98.9766 116.037 113.054C127.155 86.8021 140.43 61.4358 155.737 37.1938Z" fill="#F2F2F2"/>
<path d="M59.1371 173.098C60.875 170.997 61.5851 170.505 63.2993 168.384C77.2573 151.099 90.3767 133.231 102.658 114.778C110.999 102.246 118.927 89.4727 126.441 76.4591C130.019 70.2723 133.498 64.0369 136.879 57.7529C139.503 52.8805 142.068 47.9789 144.575 43.0482C145.292 41.6399 145.989 40.2251 146.682 38.8071C148.315 35.4725 149.918 32.1217 151.639 28.8324C153.6 25.0834 155.987 21.1531 159.588 18.6343C161.227 17.441 163.187 16.719 165.238 16.5526C168.17 16.3713 170.875 17.5303 173.418 18.7962C192.04 28.1696 209.422 39.6463 225.191 52.9809C240.985 66.2617 255.102 81.2658 267.255 97.6873C267.627 98.1956 268.506 97.71 268.13 97.1985C266.653 95.1977 265.146 93.2185 263.61 91.2609C244.508 66.9364 221.086 46.0186 194.415 29.4637C189.928 26.6795 185.357 24.0258 180.701 21.5027C178.354 20.2304 175.997 18.9743 173.6 17.7958C171.25 16.6401 168.755 15.6008 166.07 15.5619C156.934 15.426 152.203 25.3327 148.954 31.9987C147.933 34.0966 146.899 36.188 145.853 38.2729C141.901 46.1886 137.796 54.032 133.539 61.803C130.911 66.601 128.227 71.3709 125.484 76.1127C116.95 90.8789 107.879 105.346 98.2719 119.515C85.5448 138.282 72.9191 154.861 58.4203 172.412C58.0212 172.897 58.7346 173.59 59.1371 173.098Z" fill="#E4E4E4"/>
<path d="M226.094 48.089C226.624 47.5224 227.152 46.9559 227.686 46.3893C231.899 41.928 236.42 37.5186 242.205 34.961C244.964 33.703 247.975 33.0346 251.031 33.0023C254.189 33.012 257.276 33.8052 260.194 34.9157C261.573 35.4434 262.923 36.0423 264.251 36.6801C265.77 37.4117 267.261 38.192 268.745 38.9787C271.531 40.455 274.281 41.996 276.995 43.6018C282.395 46.7972 287.626 50.2365 292.688 53.9197C295.312 55.8298 297.882 57.8025 300.397 59.8379C302.737 61.7285 305.03 63.6699 307.275 65.6621C307.755 66.0862 308.472 65.3999 307.992 64.9757C307.4 64.448 306.801 63.9236 306.203 63.4056C304.512 61.9422 302.795 60.5069 301.05 59.0997C297.868 56.5291 294.604 54.0578 291.258 51.6859C286.054 47.9951 280.671 44.5547 275.109 41.3647C272.329 39.7719 269.511 38.246 266.656 36.7869C265.793 36.3466 264.921 35.916 264.038 35.5081C262.036 34.541 259.955 33.7301 257.817 33.0832C254.787 32.1449 251.582 31.8434 248.42 32.1994C245.367 32.6246 242.425 33.599 239.751 35.0711C234.07 38.111 229.664 42.8119 225.377 47.3994C224.944 47.8656 225.657 48.5552 226.094 48.089Z" fill="#E4E4E4"/>
<path d="M109.702 94.3195L96.0904 89.5526L89.332 87.1858C87.1309 86.415 84.9351 85.5375 82.6597 84.9855C80.6824 84.4447 78.5828 84.4704 76.6205 85.0592C74.8705 85.6794 73.2686 86.6302 71.91 87.855C70.5221 89.0788 69.2307 90.3992 68.0465 91.8056C66.5751 93.4987 65.1254 95.2096 63.6692 96.9147C57.6592 103.952 51.6885 111.02 45.7572 118.119C39.8259 125.217 33.9343 132.346 28.0824 139.504C22.2162 146.681 16.3903 153.887 10.6047 161.123C9.89597 162.009 9.18784 162.896 8.48031 163.784C8.08941 164.274 7.20799 163.791 7.6044 163.294C13.4326 155.985 19.3015 148.705 25.211 141.456C31.135 134.19 37.0999 126.954 43.1058 119.749C49.1116 112.545 55.1579 105.371 61.2448 98.2289C62.7613 96.4495 64.2802 94.6721 65.8017 92.8967C67.0851 91.3991 68.354 89.8853 69.7617 88.4914C72.3455 85.9327 75.5737 83.6715 79.4379 83.6102C81.7099 83.5741 83.9087 84.2644 86.0195 84.9955C88.2952 85.7838 90.5653 86.5868 92.838 87.3827L106.545 92.1829L109.972 93.383C110.58 93.5959 110.317 94.5349 109.702 94.3195Z" fill="#E4E4E4"/>
<path d="M243.997 40.5746C250.914 37.1706 259.773 37.8373 266.129 42.09C254.005 44.0929 242.013 46.7727 230.215 50.1158C235.114 47.3669 238.947 43.0599 243.997 40.5746Z" fill="#F2F2F2"/>
<path d="M266.198 42.0783L267.529 43.1147C267.079 42.752 266.611 42.4119 266.13 42.0901C266.152 42.0863 266.175 42.0821 266.198 42.0783Z" fill="#F2F2F2"/>
<path d="M72.423 94.3672C73.7629 92.8055 75.2116 91.1703 77.2157 90.536L79.0869 90.6067C64.8431 114.706 45.6058 135.763 22.5557 152.487C39.1781 133.114 55.8006 113.74 72.423 94.3672Z" fill="#F2F2F2"/>
<path d="M158.088 221.947C158.138 221.947 158.188 221.938 158.235 221.921L194.29 209.24C194.397 209.202 194.484 209.126 194.531 209.027C194.579 208.929 194.584 208.816 194.545 208.714C194.505 208.612 194.426 208.529 194.323 208.484C194.22 208.438 194.102 208.433 193.995 208.471L157.94 221.152C157.846 221.186 157.767 221.249 157.717 221.333C157.667 221.416 157.649 221.514 157.667 221.609C157.684 221.703 157.736 221.789 157.813 221.851C157.89 221.913 157.987 221.947 158.088 221.947Z" fill="#3E3E3E"/>
<path d="M223.985 198.184C224.035 198.184 224.085 198.175 224.132 198.159L260.187 185.477C260.294 185.44 260.381 185.363 260.428 185.265C260.476 185.166 260.481 185.053 260.442 184.951C260.402 184.849 260.323 184.766 260.22 184.721C260.117 184.675 259.999 184.671 259.892 184.708L223.837 197.39C223.743 197.423 223.664 197.487 223.614 197.57C223.564 197.654 223.546 197.751 223.564 197.846C223.581 197.941 223.633 198.026 223.71 198.088C223.787 198.15 223.884 198.184 223.985 198.184Z" fill="#3E3E3E"/>
<path d="M291.164 174.421C291.214 174.421 291.264 174.413 291.312 174.396L327.367 161.714C327.419 161.696 327.468 161.667 327.509 161.631C327.55 161.595 327.584 161.551 327.607 161.502C327.631 161.453 327.644 161.4 327.647 161.346C327.649 161.293 327.64 161.239 327.621 161.189C327.601 161.138 327.572 161.092 327.534 161.052C327.496 161.013 327.45 160.981 327.399 160.958C327.348 160.935 327.293 160.923 327.237 160.921C327.18 160.918 327.124 160.927 327.072 160.945L291.017 173.627C290.922 173.66 290.843 173.724 290.793 173.807C290.743 173.891 290.725 173.988 290.743 174.083C290.761 174.178 290.812 174.264 290.889 174.325C290.966 174.387 291.064 174.421 291.164 174.421Z" fill="#3E3E3E"/>
<path d="M297.92 112.825C299.423 112.504 300.946 112.25 302.449 112.073L302.668 112.047C312.647 110.909 321.071 114.897 322.264 121.324L322.476 122.487C322.608 123.222 322.751 124.013 322.921 124.888C323.003 125.319 322.55 125.761 321.891 125.902L81.8869 177.271C64.939 180.78 48.0456 184.246 31.6787 187.573C28.6161 188.235 25.5135 188.716 22.3888 189.011C17.7131 189.39 14.2898 188.891 11.9223 187.485L11.9217 187.485C8.97919 185.743 8.23889 182.914 7.63446 179.668C6.41672 173.115 5.1199 166.233 3.82736 159.373C2.68875 153.326 1.55267 147.296 0.476044 141.52C-0.156403 138.091 -0.500183 135.019 1.70782 132.141C4.10226 129.028 9.23071 126.613 16.9507 124.96C17.0439 124.94 17.1365 124.921 17.2311 124.901C41.4469 119.817 67.56 123.856 82.2094 134.951C83.8963 136.229 85.5187 137.636 87.088 138.997C89.4094 141.105 91.8834 143.053 94.4914 144.828C95.9314 145.777 97.4591 146.598 99.0554 147.28C99.1652 147.331 99.2898 147.385 99.4195 147.433C99.7211 147.563 100.033 147.684 100.333 147.787C102.082 148.433 103.897 148.899 105.748 149.179L105.933 149.205C106.073 149.228 106.223 149.249 106.372 149.265C107.434 149.402 108.502 149.482 109.572 149.507C114.199 149.633 119.237 148.823 124.545 147.097C129.444 145.486 134.124 143.319 138.485 140.644C143.113 137.811 147.317 134.614 151.382 131.522C153.168 130.164 155.015 128.76 156.872 127.406C157.22 127.152 157.564 126.902 157.913 126.652C160.186 125.025 162.268 123.639 164.276 122.412C169.207 119.385 174.557 117.036 180.17 115.433C186.102 113.782 191.565 113.332 196.401 114.091C197.744 114.301 199.068 114.612 200.36 115.021C206.317 116.904 210.594 120.651 214.729 124.274C219.873 128.78 225.192 133.44 233.818 134.6C243.772 135.941 256.854 131.699 265.779 127.28C268.585 125.891 271.36 124.389 274.045 122.937C275.129 122.35 276.215 121.766 277.302 121.184C279.438 120.042 281.195 119.142 282.829 118.35L283.346 118.099C283.634 117.96 283.922 117.822 284.217 117.686C286.164 116.769 287.993 115.984 289.812 115.285L290.241 115.118C291.106 114.796 291.918 114.509 292.718 114.242L293.038 114.136C294.639 113.615 296.269 113.177 297.92 112.825Z" fill="#F2F2F2"/>
<path d="M11.5695 189.982C11.5994 189.982 11.6292 189.979 11.6584 189.973L328.303 125.975C328.414 125.952 328.51 125.888 328.571 125.797C328.633 125.706 328.654 125.596 328.631 125.49C328.608 125.384 328.541 125.291 328.447 125.232C328.352 125.172 328.237 125.151 328.126 125.173L11.4816 189.172C11.3781 189.192 11.2863 189.249 11.224 189.331C11.1617 189.413 11.1333 189.514 11.1442 189.615C11.1552 189.716 11.2047 189.809 11.2832 189.877C11.3618 189.945 11.4638 189.982 11.5695 189.982Z" fill="#3E3E3E"/>
<path d="M77.2524 41.7896C65.2 41.7896 55.4296 32.4347 55.4296 20.8948C55.4296 9.35491 65.2 -1.52588e-05 77.2524 -1.52588e-05C89.3048 -1.52588e-05 99.0752 9.35491 99.0752 20.8948C99.0752 32.4347 89.3048 41.7896 77.2524 41.7896Z" fill="#FF6584"/>
<path d="M37.8703 4.86332C48.4466 3.4945 60.5211 8.96799 63.2623 18.8438C63.9532 17.0879 65.2091 15.5877 66.8487 14.56C68.4883 13.5322 70.4267 13.0302 72.3838 13.1264C74.341 13.2225 76.2155 13.9119 77.7366 15.0949C79.2578 16.2779 80.3467 17.8933 80.8462 19.7077L79.6354 20.5381C56.9707 25.2309 33.5092 25.1294 10.8897 20.2405C18.2465 12.8376 27.294 6.23208 37.8703 4.86332Z" fill="#F0F0F0"/>
<path d="M83.2267 32.7231C93.803 31.3543 105.878 36.8277 108.619 46.7035C109.31 44.9476 110.566 43.4474 112.205 42.4197C113.845 41.392 115.783 40.8899 117.74 40.9861C119.697 41.0823 121.572 41.7716 123.093 42.9547C124.614 44.1377 125.703 45.7531 126.203 47.5675L124.992 48.3978C102.327 53.0907 78.8656 52.9891 56.2462 48.1002C63.603 40.6973 72.6504 34.0918 83.2267 32.7231Z" fill="#F0F0F0"/>
<path d="M64.2461 200.378C64.6768 199.964 65.0073 199.464 65.2143 198.914C65.4214 198.364 65.5 197.778 65.4447 197.195C65.3893 196.613 65.2013 196.05 64.8939 195.545C64.5864 195.039 64.1671 194.605 63.6654 194.272L70.3149 162.648L62.9717 164.906L57.6491 195.494C57.1205 196.338 56.9337 197.338 57.124 198.306C57.3143 199.273 57.8686 200.14 58.6817 200.742C59.4949 201.344 60.5105 201.639 61.536 201.572C62.5616 201.505 63.5259 201.081 64.2461 200.378Z" fill="#9E616A"/>
<path d="M74.0652 133.471L69.5091 130.178C69.5091 130.178 65.4899 129.906 64.778 136.846C64.0662 143.786 62.6045 157.31 62.6045 157.31L55.6328 188.228L65.2836 190.256L72.7509 156.891L77.2305 146.982L74.0652 133.471Z" fill="#3E3E3E"/>
<path d="M66.5543 183.956L92.2282 183.547L94.3677 166.749H66.5543V183.956Z" fill="#9E616A"/>
<path d="M90.289 286.723L96.2158 286.722L99.0356 264.833L90.2881 264.834L90.289 286.723Z" fill="#9E616A"/>
<path d="M52.5295 278.862L58.4563 278.822L61.1157 256.914L53.4072 258.608L52.5295 278.862Z" fill="#9E616A"/>
<path d="M71.0667 152.283L69.7239 155.626L69.9922 158.969L96.2759 167.685L94.9716 153.054L92.017 149.711L71.0667 152.283Z" fill="#FFB6B6"/>
<path d="M82.3421 122.197C77.1576 122.197 72.9547 118.173 72.9547 113.209C72.9547 108.245 77.1576 104.221 82.3421 104.221C87.5266 104.221 91.7295 108.245 91.7295 113.209C91.7295 118.173 87.5266 122.197 82.3421 122.197Z" fill="#9E616A"/>
<path d="M87.6371 297.498H91.8428L92.5935 293.696L94.5162 297.498H105.671C106.205 297.498 106.726 297.334 107.157 297.031C107.587 296.728 107.905 296.3 108.065 295.812C108.224 295.323 108.216 294.798 108.041 294.314C107.867 293.83 107.535 293.412 107.095 293.121L98.1878 287.231V283.388L88.8185 283.923L87.6371 297.498Z" fill="#3E3E3E"/>
<path d="M49.4198 289.658L53.6254 289.63L54.3483 285.823L56.2987 289.612L67.4529 289.537C67.9875 289.534 68.507 289.367 68.9355 289.061C69.3639 288.754 69.6789 288.325 69.8344 287.835C69.99 287.345 69.9779 286.821 69.8 286.338C69.6221 285.855 69.2878 285.439 68.8457 285.152L59.8952 279.321L59.8671 275.478L50.5019 276.076L49.4198 289.658Z" fill="#3E3E3E"/>
<path d="M50.6845 263.283L55.0003 238.037L60.1351 203.212C56.3748 196.526 64.8419 175.762 64.8419 175.762L66.0372 175.817L93.0891 180.704L93.0832 180.679C98.6162 195.128 100.449 202.266 100.146 217.654L99.0562 272.967H99.3981C99.9655 272.967 100.51 273.183 100.911 273.567C101.312 273.952 101.538 274.473 101.538 275.016C101.538 275.559 101.312 276.08 100.911 276.464C100.51 276.849 99.9655 277.064 99.3981 277.064H88.7006C88.1332 277.064 87.589 276.849 87.1878 276.464C86.7866 276.08 86.5612 275.559 86.5612 275.016C86.5612 274.473 86.7866 273.952 87.1878 273.567C87.589 273.183 88.1332 272.967 88.7006 272.967H88.9765L79.1575 207.105L70.8325 234.759L61.4188 263.029C64.8419 262.209 64.3104 264.108 64.3104 265.183C64.3104 265.726 64.085 266.247 63.6838 266.632C63.2826 267.016 62.7384 267.232 62.1709 267.232H51.4735C50.9759 267.232 50.4938 267.066 50.1102 266.763C49.7266 266.46 49.4655 266.038 49.3721 265.57C49.2786 265.102 49.3585 264.617 49.5981 264.2C49.8377 263.782 50.2219 263.458 50.6845 263.283Z" fill="#3E3E3E"/>
<path d="M62.7363 176.838L63.5921 168.644C63.681 168.309 63.8781 168.011 64.1552 167.79C64.4324 167.57 64.7752 167.439 65.1348 167.417C65.4913 163.513 66.9916 146.674 67.0812 145.94L67.0847 145.909L67.7669 131.955C67.7917 131.448 68.0105 130.968 68.3817 130.606C68.7529 130.244 69.2504 130.026 69.7791 129.992L73.3823 129.767C73.4317 129.765 73.4786 129.745 73.513 129.711C73.5473 129.677 73.5666 129.632 73.5666 129.584C73.5666 129.203 73.6449 128.826 73.7972 128.474C73.9495 128.122 74.1727 127.802 74.454 127.533C74.7354 127.264 75.0695 127.05 75.4371 126.904C75.8047 126.758 76.1988 126.683 76.5967 126.683H87.2647C87.9557 126.683 88.6228 126.925 89.1409 127.363C89.6589 127.801 89.9923 128.405 90.0784 129.061C90.0831 129.106 90.1055 129.148 90.141 129.178C90.1766 129.208 90.2226 129.224 90.2701 129.223L90.2713 129.223C91.4835 129.199 92.6645 129.592 93.6 130.331C94.5354 131.069 95.1634 132.104 95.37 133.248C96.8284 141.373 99.7513 159.813 98.3062 170.065C97.8031 173.634 98.8875 170.807 99.0778 173.793C99.0966 174.082 99.0559 174.371 98.9578 174.645C98.8598 174.918 98.7063 175.17 98.5063 175.387C99.3869 175.632 99.7284 176.543 99.5024 177.401L99.6899 177.357C99.579 177.778 99.2977 178.14 98.908 178.363C98.5183 178.586 98.0521 178.651 97.6119 178.545L64.8334 170.633C63.9168 170.412 62.5053 177.715 62.7363 176.838Z" fill="#3E3E3E"/>
<path d="M98.815 200.378C98.3844 199.964 98.0538 199.464 97.8468 198.914C97.6397 198.364 97.5611 197.778 97.6164 197.195C97.6718 196.613 97.8598 196.05 98.1673 195.545C98.4747 195.039 98.894 194.605 99.3958 194.272L92.7462 162.648L100.089 164.906L105.412 195.494C105.941 196.338 106.127 197.338 105.937 198.306C105.747 199.273 105.193 200.14 104.379 200.742C103.566 201.344 102.551 201.639 101.525 201.572C100.5 201.505 99.5353 201.081 98.815 200.378Z" fill="#9E616A"/>
<path d="M88.9968 133.471L93.5529 130.178C93.5529 130.178 97.5722 129.906 98.284 136.846C98.9958 143.786 100.457 157.31 100.457 157.31L107.429 188.228L97.7784 190.256L90.3111 156.891L85.8315 146.982L88.9968 133.471Z" fill="#3E3E3E"/>
<path d="M72.2905 105.216C70.5417 105.715 68.9102 104.314 67.6929 102.987L68.1255 103.479C65.2621 105.41 63.55 108.555 62.439 111.739C61.3281 114.919 60.7085 118.251 59.4546 121.386C58.2007 124.517 56.1769 127.546 53.0788 129.108C48.9286 131.201 43.8433 130.249 39.429 128.74C39.3704 128.719 39.3154 128.701 39.2567 128.68C41.0446 125.483 42.1395 121.972 42.4758 118.36C40.6599 121.754 38.041 124.696 34.8278 126.95C31.9435 125.694 29.17 124.217 26.5345 122.533C24.8297 121.442 23.0332 120.03 22.8352 118.075C22.6335 116.134 24.1477 114.361 25.9332 113.427C27.7187 112.494 29.7719 112.178 31.7224 111.616C33.6692 111.058 35.6564 110.142 36.6793 108.457C39.0368 104.581 35.0698 99.1153 37.5996 95.3381C38.8461 93.4811 41.2659 92.7368 43.5097 92.2208C46.9345 91.4365 50.4108 90.8747 53.9148 90.5393C56.9908 90.2444 60.1695 90.1356 63.0953 91.0834C66.021 92.0313 68.6755 94.2323 69.3024 97.1319C71.0109 97.992 72.8184 98.9433 73.735 100.576C74.6516 102.205 74.142 104.69 72.2905 105.216Z" fill="#3E3E3E"/>
<path d="M69.6803 104.563C68.0056 106.572 67.094 108.744 67.094 110.045C63.6152 116.133 68.59 121.362 74.9484 124.693C77.4844 126.029 80.4127 126.517 83.2711 126.082L83.5371 124.995L83.8976 125.974C83.8976 125.974 88.0373 139.066 89.4028 139.834C88.8846 137.504 88.2911 126.717 88.0026 124.443C87.6033 121.348 88.9954 116.741 89.9996 113.939C90.6222 112.212 90.9418 110.399 90.9453 108.572V108.492L91.9231 111.499L95.4829 110.045C94.8206 106.408 95.4829 102.279 87.543 102.637C83.2487 99.8092 79.4671 99.3785 76.3607 100.181C75.9598 99.5871 73.6482 100.699 72.9802 100.386" fill="#3E3E3E"/>
<path d="M60.7899 168.48C60.9409 169.77 61.5374 170.974 62.4847 171.902C63.432 172.829 64.6759 173.428 66.0189 173.601L85.347 176.109C86.9453 176.315 88.5634 175.905 89.8463 174.969C91.1291 174.033 91.9717 172.649 92.1891 171.119L94.9747 151.396C95.1561 150.113 94.885 148.81 94.2045 147.692L94.3372 146.733C94.8861 146.542 95.3699 146.21 95.7363 145.775C96.1027 145.339 96.3379 144.816 96.4163 144.262C96.4947 143.707 96.4134 143.143 96.1812 142.63C95.949 142.117 95.5747 141.674 95.0988 141.35L92.7112 130.759C92.7431 130.532 92.7252 130.301 92.6585 130.081C92.5919 129.862 92.4779 129.658 92.324 129.482C92.17 129.307 91.9795 129.165 91.7647 129.064C91.5499 128.964 91.3155 128.907 91.0766 128.899C90.6423 128.894 90.2215 129.044 89.8953 129.318C89.5691 129.593 89.3604 129.973 89.3094 130.386L89.0911 131.943C88.7995 134.001 87.7028 135.876 86.0226 137.189C84.3425 138.502 82.2042 139.156 80.0401 139.017C77.876 138.879 75.8475 137.959 74.3647 136.443C72.8819 134.928 72.0554 132.93 72.0522 130.853C72.0524 130.482 72.0782 130.111 72.1292 129.743L72.3432 128.211C72.4129 127.785 72.3112 127.35 72.0586 126.993C71.806 126.636 71.4214 126.385 70.9825 126.289C70.7539 126.247 70.5189 126.251 70.2918 126.299C70.0647 126.348 69.8503 126.44 69.6616 126.57C69.473 126.701 69.3141 126.866 69.1947 127.058C69.0753 127.249 68.9978 127.461 68.9671 127.682L67.585 137.433C66.8248 137.383 66.0708 137.593 65.4582 138.027C64.8455 138.461 64.4142 139.09 64.2417 139.8C64.0692 140.511 64.1666 141.257 64.5166 141.905C64.8666 142.553 65.4462 143.061 66.1515 143.337C65.4597 143.796 64.8752 144.387 64.4354 145.074C63.9956 145.762 63.71 146.529 63.5969 147.327L60.8071 167.054C60.7394 167.527 60.7337 168.006 60.7899 168.48Z" fill="#E7F9D1"/>
<path d="M60.7899 168.48C60.9409 169.77 61.5374 170.974 62.4847 171.902C63.432 172.829 64.6759 173.428 66.0189 173.601L85.347 176.109C86.9453 176.315 88.5634 175.905 89.8463 174.969C91.1291 174.033 91.9717 172.649 92.1891 171.119L94.9747 151.396C95.1561 150.113 94.885 148.81 94.2045 147.692L94.3372 146.733C94.8861 146.542 95.3699 146.21 95.7363 145.775C96.1027 145.339 96.3379 144.816 96.4163 144.262C96.4947 143.707 96.4134 143.143 96.1812 142.63C95.949 142.117 95.5747 141.674 95.0988 141.35L92.7112 130.759C92.7431 130.532 92.7252 130.301 92.6585 130.081C92.5919 129.862 92.4779 129.658 92.324 129.482C92.17 129.307 91.9795 129.165 91.7647 129.064C91.5499 128.964 91.3155 128.907 91.0766 128.899C90.6423 128.894 90.2215 129.044 89.8953 129.318C89.5691 129.593 89.3604 129.973 89.3094 130.386L89.0911 131.943C88.7995 134.001 87.7028 135.876 86.0226 137.189C84.3425 138.502 82.2042 139.156 80.0401 139.017C77.876 138.879 75.8475 137.959 74.3647 136.443C72.8819 134.928 72.0554 132.93 72.0522 130.853C72.0524 130.482 72.0782 130.111 72.1292 129.743L72.3432 128.211C72.4129 127.785 72.3112 127.35 72.0586 126.993C71.806 126.636 71.4214 126.385 70.9825 126.289C70.7539 126.247 70.5189 126.251 70.2918 126.299C70.0647 126.348 69.8503 126.44 69.6616 126.57C69.473 126.701 69.3141 126.866 69.1947 127.058C69.0753 127.249 68.9978 127.461 68.9671 127.682L67.585 137.433C66.8248 137.383 66.0708 137.593 65.4582 138.027C64.8455 138.461 64.4142 139.09 64.2417 139.8C64.0692 140.511 64.1666 141.257 64.5166 141.905C64.8666 142.553 65.4462 143.061 66.1515 143.337C65.4597 143.796 64.8752 144.387 64.4354 145.074C63.9956 145.762 63.71 146.529 63.5969 147.327L60.8071 167.054C60.7394 167.527 60.7337 168.006 60.7899 168.48Z" fill="black" fill-opacity="0.15"/>
<path d="M94.6134 147.167C94.6361 147.005 94.5909 146.842 94.4878 146.712C94.3847 146.583 94.2321 146.498 94.0635 146.475L67.7193 142.609C67.6358 142.598 67.5508 142.603 67.4694 142.624C67.3879 142.644 67.3114 142.68 67.2444 142.729C67.1773 142.778 67.121 142.839 67.0785 142.909C67.0361 142.978 67.0085 143.056 66.9972 143.136C66.9859 143.216 66.9912 143.297 67.0127 143.375C67.0342 143.453 67.0716 143.526 67.1226 143.59C67.1737 143.655 67.2375 143.708 67.3103 143.749C67.3831 143.79 67.4636 143.816 67.5472 143.827L93.8913 147.693C94.06 147.715 94.2307 147.672 94.3661 147.573C94.5015 147.474 94.5904 147.328 94.6134 147.167Z" fill="#3E3E3E"/>
<path d="M91.5346 157.52L92.4053 151.36C92.4725 150.885 92.3397 150.403 92.0363 150.022C91.7328 149.64 91.2835 149.39 90.7872 149.326L65.6262 146.244C65.1299 146.18 64.6272 146.307 64.2287 146.597C63.8303 146.888 63.5687 147.318 63.5015 147.793L62.6308 153.954C62.5636 154.429 62.6963 154.91 62.9998 155.292C63.3033 155.673 63.7526 155.924 64.2489 155.988L74.2988 157.312C74.2782 157.377 74.2615 157.444 74.2488 157.512L73.3593 163.805L64.8786 162.706C64.8229 162.699 64.7662 162.702 64.7118 162.716C64.6574 162.729 64.6063 162.753 64.5616 162.786C64.5168 162.818 64.4791 162.859 64.4508 162.906C64.4225 162.952 64.404 163.004 64.3965 163.057C64.389 163.11 64.3925 163.165 64.4068 163.217C64.4212 163.269 64.4462 163.318 64.4803 163.36C64.5145 163.403 64.557 163.439 64.6057 163.466C64.6543 163.493 64.7081 163.511 64.7639 163.518L73.2445 164.617L77.0608 165.111L85.1174 166.155C85.2298 166.17 85.3436 166.141 85.4337 166.075C85.5239 166.009 85.5831 165.912 85.5983 165.804C85.6135 165.697 85.5835 165.588 85.5149 165.501C85.4462 165.415 85.3446 165.358 85.2322 165.343L77.1756 164.299L78.0651 158.006C78.0716 157.938 78.074 157.869 78.0724 157.801L89.4099 159.07C89.9062 159.134 90.4089 159.007 90.8073 158.716C91.2058 158.426 91.4674 157.995 91.5346 157.52Z" fill="#3E3E3E"/>
<path d="M190.431 316C190.537 316 190.639 315.963 190.718 315.895L373.858 157.835C373.942 157.762 373.993 157.66 373.998 157.552C374.004 157.444 373.965 157.337 373.889 157.257C373.813 157.176 373.707 157.127 373.594 157.122C373.48 157.116 373.369 157.153 373.285 157.226L190.145 315.286C190.08 315.341 190.035 315.414 190.015 315.495C189.995 315.575 190 315.66 190.032 315.737C190.063 315.815 190.117 315.881 190.189 315.928C190.26 315.975 190.345 316 190.431 316Z" fill="#3E3E3E"/>
<path d="M94.561 156.337C94.552 156.218 94.5695 156.1 94.6125 155.988C94.6554 155.877 94.7227 155.776 94.8098 155.692C94.897 155.608 95.002 155.542 95.1178 155.5C95.2336 155.458 95.3574 155.44 95.481 155.448C95.527 155.449 95.5729 155.455 95.6179 155.464L101.035 156.636C101.156 156.664 101.27 156.716 101.368 156.789C101.467 156.861 101.549 156.953 101.609 157.058C101.688 157.061 101.767 157.072 101.844 157.09C102.184 157.164 102.48 157.365 102.666 157.647C102.853 157.93 102.914 158.272 102.837 158.598C102.759 158.924 102.55 159.207 102.255 159.386C101.96 159.564 101.602 159.623 101.262 159.549C101.068 159.506 100.887 159.422 100.731 159.303L98.8956 164.252C98.8039 164.407 98.6623 164.53 98.4918 164.601C98.3214 164.673 98.1313 164.69 97.95 164.649L94.4284 163.887C94.2484 163.847 94.0865 163.753 93.9658 163.619C93.8451 163.485 93.7719 163.318 93.7566 163.142L94.561 156.337ZM101.343 159.196C101.464 159.223 101.589 159.226 101.71 159.206C101.832 159.186 101.949 159.144 102.054 159.081C102.158 159.018 102.249 158.936 102.321 158.839C102.392 158.743 102.443 158.634 102.471 158.518C102.498 158.403 102.502 158.283 102.481 158.167C102.46 158.05 102.416 157.938 102.35 157.838C102.284 157.738 102.199 157.651 102.098 157.582C101.997 157.514 101.883 157.465 101.763 157.439C101.745 157.435 101.728 157.439 101.711 157.435C101.712 157.584 101.673 157.731 101.596 157.861L100.924 158.983C101.041 159.089 101.186 159.163 101.343 159.196Z" fill="#CCCCCC"/>
<path d="M95.4805 155.448C95.4292 156.103 96.6016 156.857 98.172 157.156C99.6141 157.439 100.906 157.242 101.27 156.726C101.197 156.684 101.118 156.654 101.035 156.636L95.6175 155.464C95.5724 155.455 95.5266 155.449 95.4805 155.448Z" fill="#E6E6E6"/>
<path d="M98.3114 168.539L99.884 165.407C100.805 163.571 99.1186 161.619 96.1238 161.054L92.4336 160.458L90.8899 170.783L91.2094 170.844C94.2042 171.408 97.3901 170.374 98.3114 168.539Z" fill="#E7F9D1"/>
<path d="M98.3114 168.539L99.884 165.407C100.805 163.571 99.1186 161.619 96.1238 161.054L92.4336 160.458L90.8899 170.783L91.2094 170.844C94.2042 171.408 97.3901 170.374 98.3114 168.539Z" fill="black" fill-opacity="0.15"/>
<g opacity="0.2">
<path d="M60.7912 168.48C60.9421 169.77 61.5386 170.974 62.4859 171.902C63.4333 172.83 64.6771 173.428 66.0201 173.601L85.3483 176.109C86.4965 176.258 87.6651 176.089 88.7166 175.623C89.7681 175.157 90.6586 174.413 91.2832 173.479C90.7384 172.848 90.0635 172.332 89.3007 171.962C88.5379 171.593 87.7036 171.378 86.8502 171.332C85.1899 171.25 83.581 171.778 81.955 172.073C78.0234 172.783 73.9564 172.137 70.4745 170.25C68.964 169.41 67.6033 168.337 65.9431 167.739C64.2828 167.145 62.1391 167.165 60.9367 168.325C60.8848 168.373 60.8362 168.425 60.7912 168.48Z" fill="#3E3E3E"/>
</g>
</g>
<defs>
<clipPath id="clip0_1302_4425">
<rect width="374" height="316" fill="white" transform="matrix(-1 0 0 1 374 0)"/>
</clipPath>
</defs>
</svg>
