<svg width="375" height="276" viewBox="0 0 375 276" fill="none" xmlns="http://www.w3.org/2000/svg">
<g clip-path="url(#clip0_1302_4368)">
<path d="M284.236 148.227L291.747 146.981L293.623 152.263L286.071 154.507L284.236 148.227Z" fill="#ED9DA0"/>
<path d="M232.219 275.298C232.219 275.298 226.262 261.887 244.134 251.828L232.219 275.298Z" fill="#E6E6E6"/>
<path d="M238.571 275.054C238.571 275.054 236.754 265.497 222.688 265.577L238.571 275.054Z" fill="#E6E6E6"/>
<path d="M359.262 275.298C359.262 275.298 351.389 257.58 375.003 244.291L359.262 275.298Z" fill="#E6E6E6"/>
<path d="M349.582 274.976C349.582 274.976 347.181 262.347 328.598 262.455L349.582 274.976Z" fill="#E6E6E6"/>
<path d="M229.239 78.6517L216.91 72.6623L217.832 72.2136L230.161 78.2039L229.239 78.6517Z" fill="#B2DCFF"/>
<path d="M218.484 78.6517L217.562 78.2039L229.891 72.2136L230.813 72.6623L218.484 78.6517Z" fill="#B2DCFF"/>
<path d="M161.104 47.4504L160.729 48.1198L162.925 49.1488L163.3 48.4794L161.104 47.4504Z" fill="#CBCBCB"/>
<path d="M206.628 69.6318L202.257 67.5836L202.632 66.9142L207.003 68.9624L206.628 69.6318ZM197.887 65.5354L193.516 63.4868L193.891 62.8174L198.262 64.866L197.887 65.5354ZM189.146 61.4386L184.776 59.3905L185.151 58.721L189.521 60.7692L189.146 61.4386ZM180.405 57.3423L176.034 55.2941L176.409 54.6247L180.78 56.6729L180.405 57.3423ZM171.664 53.2459L167.294 51.1978L167.669 50.5283L172.039 52.5765L171.664 53.2459Z" fill="#CBCBCB"/>
<path d="M211.375 71.0102L211 71.6796L213.195 72.7086L213.57 72.0392L211.375 71.0102Z" fill="#CBCBCB"/>
<path d="M45.582 97.8054C45.582 98.0403 45.5738 98.2733 45.5572 98.5045C45.4638 99.8369 45.0958 101.141 44.4724 102.348C44.4677 102.359 44.4621 102.368 44.4569 102.378C44.4279 102.434 44.3979 102.49 44.3674 102.545C44.182 102.887 43.9763 103.218 43.7512 103.539C42.7234 105.013 41.3146 106.232 39.6494 107.089C37.9841 107.946 36.1137 108.415 34.2034 108.453L34.3187 114.511L35.8182 113.787L36.0862 114.253L34.3276 115.1L34.5427 126.35L34.545 126.5L33.3838 126.737L33.3861 126.586L33.7517 108.454C32.214 108.434 30.6961 108.135 29.286 107.574C27.8759 107.013 26.6018 106.201 25.5375 105.186C25.4644 105.117 25.3918 105.045 25.321 104.974L25.313 104.966C24.4265 104.082 23.7093 103.068 23.1917 101.966C23.2029 101.978 23.2151 101.989 23.2263 102.001C22.0571 99.5003 21.9778 96.6856 23.0046 94.1333C24.0313 91.581 26.0865 89.4845 28.7488 88.2734L28.8707 88.219C31.5042 87.0589 34.5182 86.846 37.3153 87.6225C40.1124 88.3991 42.4884 90.1085 43.9724 92.4118C44.0431 92.5206 44.113 92.6321 44.1776 92.7439C45.0994 94.2984 45.5811 96.0392 45.5788 97.8076L45.582 97.8054Z" fill="#E5E5E5"/>
<path d="M44.0148 102.383C52.4446 102.383 59.2782 96.133 59.2782 88.4233C59.2782 80.7136 52.4446 74.4636 44.0148 74.4636C35.5851 74.4636 28.7515 80.7136 28.7515 88.4233C28.7515 96.133 35.5851 102.383 44.0148 102.383Z" fill="#B2DCFF"/>
<path opacity="0.2" d="M32.7448 79.0996C31.3211 82.1455 31.1279 85.5552 32.1999 88.7194C33.2719 91.8835 35.5391 94.596 38.5964 96.372C41.6538 98.1481 45.302 98.8721 48.8892 98.4145C52.4764 97.957 55.7689 96.3478 58.1783 93.8744C57.3085 95.7353 56.0067 97.4009 54.3632 98.756C52.7197 100.111 50.7737 101.123 48.6601 101.722C46.5465 102.321 44.3157 102.493 42.1224 102.225C39.9291 101.957 37.8257 101.256 35.9579 100.171C34.09 99.0863 32.5025 97.6428 31.3051 95.9409C30.1078 94.239 29.3294 92.3193 29.0238 90.315C28.7181 88.3106 28.8926 86.2694 29.5351 84.3329C30.1776 82.3963 31.2728 80.6107 32.7448 79.0996Z" fill="#3E3E3E"/>
<path d="M44.8408 127.312L43.2817 126.912L43.285 126.759L43.7536 103.538L43.7771 102.381V102.347L43.8586 98.29L43.9767 92.4099L44.0568 88.4241H44.0999L44.1819 92.7424L44.2888 98.3628L44.3651 102.349V102.378L44.3684 102.543L44.5165 110.316L44.532 111.088L44.838 127.155L44.8408 127.312Z" fill="#3E3E3E"/>
<path d="M46.4846 109.371L43.9614 110.586L44.3131 111.197L46.8362 109.982L46.4846 109.371Z" fill="#3E3E3E"/>
<path d="M241.876 43.2442C222.611 42.203 203.287 42.4752 184.066 44.0585C174.802 44.8244 165.39 45.6515 156.297 47.5C148.973 48.9889 140.472 51.5046 135.909 57.365C134.953 58.5458 134.309 59.9129 134.027 61.3592C133.745 62.8056 133.833 64.292 134.283 65.7022C135.372 69.0451 138.079 71.824 140.961 74.002C147.596 79.0164 155.828 81.9307 163.181 85.9165C176.607 93.1882 188.894 102.989 196.78 115.44C200.25 120.918 203.552 128.203 199.685 134.24C195.899 140.154 187.448 142.192 180.556 143.154C171.917 144.359 163.019 144.032 154.344 143.358C144.834 142.546 135.376 141.28 126.011 139.562C107.664 136.34 89.484 132.242 70.8822 130.378C61.5551 129.374 52.1494 129.125 42.7744 129.634C34.3077 130.157 25.7683 131.381 17.8147 134.174C11.6853 136.325 5.15208 139.581 1.84139 145.009C-1.34981 150.243 -0.105197 156.278 3.36997 161.106C7.55133 166.915 14.071 170.896 20.8489 173.806C28.5668 177.119 36.8222 179.267 45.0874 181.092C49.2796 182.018 53.4942 182.855 57.7093 183.689C58.5884 183.862 58.9642 182.627 58.0842 182.453C49.5837 180.773 41.0589 179.087 32.7697 176.656C25.0991 174.405 17.2491 171.523 10.9674 166.798C5.88544 162.975 1.05366 157.392 1.35357 151.043C1.65582 144.643 7.52696 140.175 13.2814 137.424C20.4731 133.987 28.6437 132.313 36.6498 131.438C45.8171 130.503 55.0621 130.389 64.2538 131.095C82.8106 132.386 100.955 136.253 119.151 139.623C136.828 142.899 155.056 145.933 173.171 145.093C180.351 144.76 188.045 143.819 194.385 140.504C197.287 138.987 199.905 136.846 201.38 134.061C202.709 131.411 203.13 128.455 202.586 125.582C201.558 119.272 197.46 113.421 193.371 108.396C188.889 102.943 183.69 98.0145 177.891 93.7235C171.527 89.039 164.664 84.9504 157.407 81.5193C153.559 79.6661 149.656 77.8841 145.988 75.7377C142.474 73.6806 139.003 71.2034 136.856 67.8626C134.998 64.9731 134.657 61.6752 136.592 58.7446C138.549 55.7806 141.92 53.7131 145.245 52.2023C153.254 48.5624 162.566 47.5883 171.329 46.588C190.146 44.4517 209.109 43.5869 228.064 44.0006C232.672 44.0998 237.276 44.2742 241.877 44.5239C242.778 44.5724 242.775 43.2905 241.877 43.2421L241.876 43.2442Z" fill="#3E3E3E"/>
<path d="M229.655 2.15853L232.565 0.0297767C230.304 -0.198227 229.375 0.929792 228.995 1.82166C227.229 1.15094 225.306 2.02995 225.306 2.02995L231.129 3.96327C230.835 3.24576 230.324 2.61971 229.655 2.15853Z" fill="#3E3E3E"/>
<path d="M215.532 8.89791L218.442 6.76916C216.181 6.54115 215.252 7.66917 214.872 8.56104C213.106 7.89032 211.183 8.76933 211.183 8.76933L217.006 10.7027C216.712 9.98514 216.201 9.35909 215.532 8.89791Z" fill="#3E3E3E"/>
<path d="M229.655 19.5678L232.565 17.4391C230.304 17.2111 229.375 18.3391 228.995 19.231C227.229 18.5602 225.306 19.4393 225.306 19.4393L231.129 21.3747C230.835 20.6572 230.324 20.0312 229.655 19.57L229.655 19.5678Z" fill="#3E3E3E"/>
<path d="M186.029 22.7213C190.871 22.7213 194.796 19.1312 194.796 14.7025C194.796 10.2739 190.871 6.68384 186.029 6.68384C181.187 6.68384 177.261 10.2739 177.261 14.7025C177.261 19.1312 181.187 22.7213 186.029 22.7213Z" fill="#FF6583"/>
<path d="M213.522 39.4122H170.511C170.457 39.4129 170.403 39.409 170.35 39.4006L190.693 7.17624C190.817 6.97547 190.997 6.80844 191.215 6.69222C191.433 6.57601 191.681 6.51477 191.933 6.51477C192.185 6.51477 192.433 6.57601 192.65 6.69222C192.868 6.80844 193.048 6.97547 193.172 7.17624L206.824 28.8006L207.48 29.8352L213.522 39.4122Z" fill="#B2DCFF"/>
<path d="M237.469 39.4126H200.269L207.477 29.8361L207.996 29.146L217.389 16.6645C217.555 16.4736 217.763 16.3168 218 16.2042C218.237 16.0917 218.497 16.0261 218.763 16.0115C219.029 15.997 219.296 16.0339 219.546 16.1198C219.795 16.2057 220.023 16.3387 220.212 16.5103C220.261 16.559 220.306 16.6105 220.348 16.6645L237.469 39.4126Z" fill="#B2DCFF"/>
<path d="M176.104 113.32C180.181 115.184 182.665 117.645 182.665 120.345C182.665 126.161 171.158 130.875 156.965 130.875C150.794 130.875 145.132 129.983 140.704 128.498C145.41 130.649 152.24 132.003 159.845 132.003C174.039 132.003 185.545 127.289 185.545 121.473C185.542 118.186 181.863 115.251 176.104 113.32Z" fill="#F1F1F1"/>
<path d="M185.173 117.315C189.773 119.418 192.574 122.195 192.574 125.242C192.574 131.804 179.591 137.124 163.575 137.124C156.611 137.124 150.223 136.117 145.224 134.441C150.534 136.868 158.241 138.396 166.823 138.396C182.839 138.396 195.822 133.076 195.822 126.515C195.822 122.807 191.672 119.494 185.173 117.315Z" fill="#F1F1F1"/>
<path d="M172.634 115.08C175.506 116.393 177.255 118.127 177.255 120.029C177.255 124.126 169.148 127.448 159.148 127.448C155.252 127.494 151.377 126.927 147.691 125.773C151.006 127.288 155.818 128.242 161.176 128.242C171.176 128.242 179.283 124.921 179.283 120.823C179.283 118.508 176.691 116.44 172.634 115.08Z" fill="#F1F1F1"/>
<path d="M132.277 114.328C132.277 114.328 132.908 122.765 151.001 122.765C169.094 122.765 174.495 114.328 174.495 114.328H132.277Z" fill="#3E3E3E"/>
<path d="M157.958 92.1896C155.346 90.3747 152.068 89.5546 148.81 89.901C151.72 90.5443 154.29 92.1042 156.069 94.3071C157.848 96.5101 158.722 99.2154 158.537 101.949C158.353 104.682 157.123 107.269 155.062 109.256C153.001 111.242 150.241 112.502 147.267 112.814C150.114 113.444 153.111 113.157 155.754 112.003C158.398 110.849 160.526 108.898 161.781 106.477C163.036 104.057 163.341 101.315 162.645 98.7124C161.948 96.1102 160.293 93.8068 157.958 92.1896Z" fill="#3E3E3E"/>
<path d="M152.028 88.3784H150.795V115.234H152.028V88.3784Z" fill="#3E3E3E"/>
<path d="M233.1 68.4245L233.094 68.4142L233.077 67.7581L236.941 62.6263L233.082 67.2669L233.068 67.4058L232.936 62.1604L236.274 56.84L232.926 61.239L232.962 50.3719V50.3359V50.3715L232.74 58.9362L229.698 55.4575L232.73 59.6742L232.664 64.3659L229.864 59.787L232.653 65.0559L232.616 67.6647L232.514 74.8926L232.507 75.4326C232.764 75.4344 233.02 75.4305 233.272 75.4211L233.097 68.4781L233.1 68.4245Z" fill="#CBCBCB"/>
<path d="M214.596 70.6801L214.59 70.6699L214.573 70.0137L218.438 64.8819L214.58 69.523L214.565 69.6618L214.433 64.4165L217.771 59.0961L214.424 63.495L214.459 52.628V52.5941V52.6297L214.237 61.1944L211.195 57.7156L214.227 61.9324L214.161 66.6241L211.361 62.0451L214.15 67.3141L214.113 69.9228L214.011 77.1508L214.004 77.6908C214.261 77.6925 214.517 77.6887 214.769 77.6793L214.594 70.7363L214.596 70.6801Z" fill="#CBCBCB"/>
<path d="M223.642 63.5357L223.635 63.5254L223.618 62.8693L227.483 57.7375L223.623 62.3782L223.609 62.517L223.477 57.2716L226.815 51.9513L223.467 56.3502L223.503 45.4831L223.281 54.0474L220.239 50.5687L223.271 54.7854L223.205 59.4771L220.405 54.8982L223.194 60.1671L223.157 62.7759L223.055 70.0039L223.048 70.5439C223.305 70.5456 223.561 70.5417 223.813 70.5323L223.638 63.5893L223.642 63.5357Z" fill="#CBCBCB"/>
<path d="M70.8172 188.415C73.5424 188.415 75.7516 186.395 75.7516 183.902C75.7516 181.41 73.5424 179.389 70.8172 179.389C68.092 179.389 65.8828 181.41 65.8828 183.902C65.8828 186.395 68.092 188.415 70.8172 188.415Z" fill="#B2DCFF"/>
<path d="M320.52 267.206L315.952 268.759L307.231 253.382L313.974 251.092L320.52 267.206Z" fill="#ED9DA0"/>
<path d="M323.33 270.861L308.6 275.866L308.53 275.695C307.965 274.304 308.028 272.765 308.703 271.416C309.379 270.068 310.613 269.02 312.133 268.503L321.13 265.446L323.33 270.861Z" fill="#3E3E3E"/>
<path d="M275.564 271.546H270.69L268.372 254.354H275.564L275.564 271.546Z" fill="#ED9DA0"/>
<path d="M276.409 275.866H260.695V275.684C260.695 274.201 261.339 272.778 262.486 271.729C263.633 270.68 265.189 270.091 266.811 270.09H276.409V275.866Z" fill="#3E3E3E"/>
<path d="M297.877 152.315L296.284 149.407L282.769 155.588L283.166 158.133L280.582 161.223C280.582 161.223 276.21 163.404 277.005 170.675L277.801 177.583L278.795 186.49L271.839 208.484L268.261 237.566L265.677 261.015L278.199 260.47L289.726 222.297L309.999 263.379L323.911 260.109L304.831 219.39L302.446 202.303C302.446 202.303 304.036 193.214 296.483 187.034L297.676 183.762V179.73L301.651 160.495L297.877 152.315Z" fill="#3E3E3E"/>
<path opacity="0.2" d="M298.246 193.883L289.501 222.24L289.951 222.356L298.696 193.999L298.246 193.883Z" fill="#3E3E3E"/>
<path d="M297.477 186.489H278V188.306H297.477V186.489Z" fill="#3E3E3E"/>
<path d="M278 189.397C278.439 189.397 278.796 188.583 278.796 187.579C278.796 186.575 278.439 185.762 278 185.762C277.561 185.762 277.205 186.575 277.205 187.579C277.205 188.583 277.561 189.397 278 189.397Z" fill="#3E3E3E"/>
<path d="M291.864 147.613C296.998 145.046 298.885 139.158 296.078 134.461C293.272 129.765 286.834 128.039 281.699 130.606C276.564 133.174 274.677 139.062 277.484 143.758C280.291 148.454 286.729 150.18 291.864 147.613Z" fill="#ED9DA0"/>
<path d="M302.998 135.65C308.174 135.65 312.371 131.812 312.371 127.077C312.371 122.343 308.174 118.504 302.998 118.504C297.821 118.504 293.624 122.343 293.624 127.077C293.624 131.812 297.821 135.65 302.998 135.65Z" fill="#3E3E3E"/>
<path d="M314.892 126.159C315.258 127.294 315.363 128.486 315.201 129.659C315.039 130.833 314.612 131.963 313.949 132.979C313.285 133.995 312.399 134.874 311.346 135.561C310.293 136.248 309.096 136.729 307.83 136.972C306.564 137.215 305.257 137.216 303.991 136.975C302.724 136.733 301.526 136.255 300.472 135.569C299.418 134.884 298.53 134.006 297.865 132.991C297.2 131.977 296.771 130.847 296.607 129.674C297.273 131.741 298.767 133.503 300.79 134.608C302.813 135.713 305.217 136.081 307.524 135.638C309.83 135.194 311.869 133.973 313.235 132.216C314.6 130.46 315.192 128.297 314.892 126.159Z" fill="#3E3E3E"/>
<path d="M277.861 136.419C277.586 138.635 278.117 140.872 279.373 142.784C280.63 144.696 282.54 146.175 284.809 146.993C287.077 147.81 289.577 147.921 291.922 147.307C294.266 146.694 296.324 145.39 297.776 143.598C299.228 141.807 299.993 139.627 299.953 137.397C299.914 135.167 299.071 133.012 297.556 131.264C296.04 129.517 293.937 128.276 291.572 127.732C289.207 127.189 286.712 127.374 284.474 128.259C282.623 126.894 280.328 127.316 278.462 128.758C276.353 130.387 275.726 131.507 274.089 134.186C275.699 134.393 276.251 136.213 277.861 136.419Z" fill="#3E3E3E"/>
<path d="M316.808 165.561C316.689 168.432 316.454 174.086 316.454 174.374C316.454 174.678 311.768 183.551 309.744 187.37C309.6 187.639 309.471 187.884 309.356 188.099C309.2 188.395 308.954 188.644 308.647 188.816C308.34 188.989 307.986 189.077 307.626 189.071L298.78 188.925C298.294 188.918 297.831 188.739 297.486 188.426C297.141 188.113 296.941 187.691 296.929 187.247L295.942 151.651C295.938 151.534 295.961 151.417 296.008 151.308C296.054 151.198 296.125 151.099 296.214 151.015C296.304 150.93 296.411 150.864 296.529 150.818C296.647 150.772 296.774 150.749 296.903 150.749H308.311C308.793 150.749 309.265 150.873 309.674 151.107C310.082 151.342 310.41 151.676 310.619 152.073L316.095 162.434C316.609 163.408 316.854 164.482 316.809 165.562L316.808 165.561Z" fill="#E7F9D1"/>
<path d="M316.808 165.561C316.689 168.432 316.454 174.086 316.454 174.374C316.454 174.678 311.768 183.551 309.744 187.37C309.6 187.639 309.471 187.884 309.356 188.099C309.2 188.395 308.954 188.644 308.647 188.816C308.34 188.989 307.986 189.077 307.626 189.071L298.78 188.925C298.294 188.918 297.831 188.739 297.486 188.426C297.141 188.113 296.941 187.691 296.929 187.247L295.942 151.651C295.938 151.534 295.961 151.417 296.008 151.308C296.054 151.198 296.125 151.099 296.214 151.015C296.304 150.93 296.411 150.864 296.529 150.818C296.647 150.772 296.774 150.749 296.903 150.749H308.311C308.793 150.749 309.265 150.873 309.674 151.107C310.082 151.342 310.41 151.676 310.619 152.073L316.095 162.434C316.609 163.408 316.854 164.482 316.809 165.562L316.808 165.561Z" fill="black" fill-opacity="0.15"/>
<path d="M296.774 184.805C294.504 183.547 292.464 181.971 290.729 180.134C286.698 175.987 284.247 170.757 283.743 165.228C283.293 160.497 284.319 156.98 286.794 154.776C289.938 151.974 294.219 152.381 294.4 152.4L294.591 152.42L297.493 154.664L296.672 155.551L294.078 153.543C293.283 153.506 290.041 153.5 287.672 155.618C285.492 157.568 284.597 160.767 285.011 165.127C285.491 170.392 287.819 175.373 291.648 179.327C293.3 181.075 295.237 182.58 297.39 183.788L296.774 184.805Z" fill="#E7F9D1"/>
<path d="M296.774 184.805C294.504 183.547 292.464 181.971 290.729 180.134C286.698 175.987 284.247 170.757 283.743 165.228C283.293 160.497 284.319 156.98 286.794 154.776C289.938 151.974 294.219 152.381 294.4 152.4L294.591 152.42L297.493 154.664L296.672 155.551L294.078 153.543C293.283 153.506 290.041 153.5 287.672 155.618C285.492 157.568 284.597 160.767 285.011 165.127C285.491 170.392 287.819 175.373 291.648 179.327C293.3 181.075 295.237 182.58 297.39 183.788L296.774 184.805Z" fill="black" fill-opacity="0.15"/>
<path d="M313.241 171.285L297.777 174.186L297.862 174.566L313.327 171.665L313.241 171.285Z" fill="#3E3E3E"/>
<path d="M303.049 150.744L302.625 150.76L303.635 173.251L304.058 173.235L303.049 150.744Z" fill="#3E3E3E"/>
<path d="M316.809 165.562C316.691 168.434 316.456 174.087 316.456 174.375C316.456 174.679 311.77 183.553 309.746 187.372L313.519 167.334C313.665 166.563 314.032 165.842 314.583 165.243C315.134 164.645 315.849 164.191 316.655 163.928C316.782 164.465 316.833 165.014 316.809 165.562Z" fill="#3E3E3E"/>
<path d="M293.626 207.555C293.96 207.162 294.196 206.706 294.316 206.22C294.437 205.734 294.439 205.229 294.324 204.742C294.208 204.255 293.977 203.797 293.647 203.401C293.317 203.004 292.896 202.679 292.414 202.447L293.18 194.69L288.139 193.114L287.224 204.085C286.856 204.852 286.807 205.715 287.088 206.512C287.368 207.309 287.957 207.985 288.745 208.412C289.532 208.839 290.463 208.988 291.362 208.83C292.261 208.673 293.066 208.22 293.625 207.557L293.626 207.555Z" fill="#ED9DA0"/>
<path d="M294.285 200.048L285.352 199.752L285.729 160.35C285.723 159.235 286.1 158.147 286.807 157.238C287.514 156.33 288.515 155.648 289.669 155.288C290.747 154.961 291.912 154.96 292.991 155.286C294.215 155.664 295.266 156.404 295.979 157.39C296.692 158.376 297.026 159.55 296.927 160.728L294.285 200.048Z" fill="#CBCBCB"/>
<path d="M372.655 276H194.672C194.554 275.992 194.444 275.943 194.364 275.864C194.284 275.785 194.239 275.681 194.239 275.573C194.239 275.465 194.284 275.361 194.364 275.282C194.444 275.203 194.554 275.154 194.672 275.146H372.655C372.72 275.141 372.785 275.149 372.846 275.168C372.907 275.187 372.963 275.218 373.01 275.258C373.057 275.298 373.095 275.347 373.121 275.401C373.147 275.455 373.16 275.514 373.16 275.573C373.16 275.632 373.147 275.69 373.121 275.745C373.095 275.799 373.057 275.847 373.01 275.887C372.963 275.928 372.907 275.958 372.846 275.978C372.785 275.997 372.72 276.005 372.655 276Z" fill="#CBCBCB"/>
</g>
<defs>
<clipPath id="clip0_1302_4368">
<rect width="375.003" height="276.002" fill="white"/>
</clipPath>
</defs>
</svg>
