<svg width="30" height="29" viewBox="0 0 30 29" fill="none" xmlns="http://www.w3.org/2000/svg">
<path d="M26.7426 1.5L24.0759 4.16667M24.0759 4.16667L28.0759 8.16667L23.4092 12.8333L19.4092 8.83333M24.0759 4.16667L19.4092 8.83333M13.9292 14.3133C14.6177 14.9926 15.165 15.8014 15.5396 16.6931C15.9142 17.5847 16.1087 18.5417 16.1119 19.5088C16.1152 20.476 15.9271 21.4342 15.5584 22.3284C15.1898 23.2226 14.648 24.035 13.9641 24.7189C13.2802 25.4027 12.4678 25.9446 11.5736 26.3132C10.6795 26.6818 9.72122 26.8699 8.75406 26.8667C7.78691 26.8635 6.82994 26.6689 5.93827 26.2943C5.04661 25.9197 4.23784 25.3725 3.55855 24.684C2.22273 23.3009 1.48357 21.4485 1.50028 19.5257C1.51699 17.6029 2.28822 15.7637 3.64788 14.404C5.00754 13.0443 6.84683 12.2731 8.76961 12.2564C10.6924 12.2397 12.5448 12.9788 13.9279 14.3147L13.9292 14.3133ZM13.9292 14.3133L19.4092 8.83333" stroke="#3E3E3E" stroke-width="3" stroke-linecap="round" stroke-linejoin="round"/>
</svg>
