<svg width="327" height="264" viewBox="0 0 327 264" fill="none" xmlns="http://www.w3.org/2000/svg">
<path d="M304.076 180.35C309.274 127.459 229.685 14.1536 176.342 70.2221C148.264 99.7355 79.9441 134.059 29.7861 151.631C-18.9855 168.717 81.7766 253.828 157.52 261.758C233.263 269.689 298.878 233.241 304.076 180.35Z" fill="#F2F7FF"/>
<path d="M53.2284 219.799C56.1507 219.799 56.1556 215.111 53.2284 215.111C50.306 215.111 50.3012 219.799 53.2284 219.799ZM26.2592 112.338C29.1816 112.338 29.1864 107.65 26.2592 107.65C23.3369 107.65 23.3321 112.338 26.2592 112.338ZM72.3488 44.6524C75.2711 44.6524 75.276 39.9645 72.3488 39.9645C69.4265 39.9645 69.4216 44.6524 72.3488 44.6524Z" fill="#FFDB74"/>
<path d="M72.3489 44.6524C75.2712 44.6524 75.2761 39.9645 72.3489 39.9645C69.4265 39.9645 69.4217 44.6524 72.3489 44.6524ZM14.1701 217.124C17.0925 217.124 17.0973 212.436 14.1701 212.436C11.2478 212.436 11.2429 217.124 14.1701 217.124ZM155.347 4.6879C158.269 4.6879 158.274 0 155.347 0C152.424 0 152.419 4.6879 155.347 4.6879ZM126.304 184.727C129.226 184.727 129.231 180.039 126.304 180.039C123.382 180.039 123.377 184.727 126.304 184.727ZM48.6414 93.5941C51.5637 93.5941 51.5686 88.9062 48.6414 88.9062C45.719 88.9062 45.7142 93.5941 48.6414 93.5941ZM68.7921 242.579C71.7144 242.579 71.7193 237.891 68.7921 237.891C65.8697 237.891 65.8649 242.579 68.7921 242.579ZM227.399 221.919C230.321 221.919 230.326 217.231 227.399 217.231C224.477 217.231 224.472 221.919 227.399 221.919ZM235.849 38.7456C238.771 38.7456 238.776 34.0577 235.849 34.0577C232.927 34.0577 232.922 38.7456 235.849 38.7456ZM295.7 184.727C298.622 184.727 298.627 180.039 295.7 180.039C292.778 180.039 292.773 184.727 295.7 184.727ZM61.7171 186.281C62.0114 186.27 62.2903 186.142 62.4949 185.923C62.6995 185.705 62.8138 185.413 62.8138 185.109C62.8138 184.805 62.6995 184.512 62.4949 184.294C62.2903 184.075 62.0114 183.947 61.7171 183.937C61.4227 183.947 61.1439 184.075 60.9393 184.294C60.7347 184.512 60.6203 184.805 60.6203 185.109C60.6203 185.413 60.7347 185.705 60.9393 185.923C61.1439 186.142 61.4227 186.27 61.7171 186.281ZM206.415 14.9847C206.709 14.9742 206.988 14.8461 207.192 14.6274C207.397 14.4088 207.511 14.1167 207.511 13.8127C207.511 13.5087 207.397 13.2166 207.192 12.998C206.988 12.7793 206.709 12.6513 206.415 12.6407C206.12 12.6513 205.841 12.7793 205.637 12.998C205.432 13.2166 205.318 13.5087 205.318 13.8127C205.318 14.1167 205.432 14.4088 205.637 14.6274C205.841 14.8461 206.12 14.9742 206.415 14.9847ZM169.673 93.0836C169.968 93.0731 170.247 92.945 170.451 92.7264C170.656 92.5078 170.77 92.2157 170.77 91.9117C170.77 91.6077 170.656 91.3156 170.451 91.0969C170.247 90.8783 169.968 90.7502 169.673 90.7397C169.379 90.7502 169.1 90.8783 168.896 91.0969C168.691 91.3156 168.577 91.6077 168.577 91.9117C168.577 92.2157 168.691 92.5078 168.896 92.7264C169.1 92.945 169.379 93.0731 169.673 93.0836ZM188.43 191.343C188.724 191.333 189.003 191.205 189.207 190.986C189.412 190.768 189.526 190.475 189.526 190.171C189.526 189.868 189.412 189.575 189.207 189.357C189.003 189.138 188.724 189.01 188.43 189C188.135 189.01 187.856 189.138 187.652 189.357C187.447 189.575 187.333 189.868 187.333 190.171C187.333 190.475 187.447 190.768 187.652 190.986C187.856 191.205 188.135 191.333 188.43 191.343ZM145.92 252.942C146.214 252.932 146.493 252.804 146.697 252.585C146.902 252.367 147.016 252.074 147.016 251.77C147.016 251.467 146.902 251.174 146.697 250.956C146.493 250.737 146.214 250.609 145.92 250.599C145.625 250.609 145.346 250.737 145.142 250.956C144.937 251.174 144.823 251.467 144.823 251.77C144.823 252.074 144.937 252.367 145.142 252.585C145.346 252.804 145.625 252.932 145.92 252.942ZM275.902 251.255C276.196 251.244 276.475 251.116 276.68 250.898C276.884 250.679 276.999 250.387 276.999 250.083C276.999 249.779 276.884 249.487 276.68 249.268C276.475 249.049 276.196 248.921 275.902 248.911C275.608 248.921 275.329 249.049 275.124 249.268C274.92 249.487 274.805 249.779 274.805 250.083C274.805 250.387 274.92 250.679 275.124 250.898C275.329 251.116 275.608 251.244 275.902 251.255ZM171.262 139.027C171.556 139.016 171.835 138.888 172.04 138.669C172.244 138.451 172.359 138.159 172.359 137.855C172.359 137.551 172.244 137.258 172.04 137.04C171.835 136.821 171.556 136.693 171.262 136.683C170.968 136.693 170.689 136.821 170.484 137.04C170.28 137.258 170.165 137.551 170.165 137.855C170.165 138.159 170.28 138.451 170.484 138.669C170.689 138.888 170.968 139.016 171.262 139.027Z" fill="#FFDB74"/>
<path d="M105.325 10.312C105.619 10.3014 105.898 10.1734 106.103 9.95472C106.307 9.73608 106.422 9.44398 106.422 9.13999C106.422 8.83601 106.307 8.5439 106.103 8.32527C105.898 8.10663 105.619 7.97854 105.325 7.96802C105.031 7.97854 104.752 8.10663 104.547 8.32527C104.342 8.5439 104.228 8.83601 104.228 9.13999C104.228 9.44398 104.342 9.73608 104.547 9.95472C104.752 10.1734 105.031 10.3014 105.325 10.312ZM28.4527 165.494C28.747 165.484 29.0259 165.356 29.2305 165.137C29.4351 164.918 29.5495 164.626 29.5495 164.322C29.5495 164.018 29.4351 163.726 29.2305 163.507C29.0259 163.289 28.747 163.161 28.4527 163.15C28.1584 163.161 27.8795 163.289 27.6749 163.507C27.4703 163.726 27.356 164.018 27.356 164.322C27.356 164.626 27.4703 164.918 27.6749 165.137C27.8795 165.356 28.1584 165.484 28.4527 165.494ZM167.896 37.0151C168.19 37.0045 168.469 36.8764 168.673 36.6578C168.878 36.4392 168.992 36.1471 168.992 35.8431C168.992 35.5391 168.878 35.247 168.673 35.0284C168.469 34.8097 168.19 34.6816 167.896 34.6711C167.601 34.6816 167.322 34.8097 167.118 35.0284C166.913 35.247 166.799 35.5391 166.799 35.8431C166.799 36.1471 166.913 36.4392 167.118 36.6578C167.322 36.8764 167.601 37.0045 167.896 37.0151ZM297.893 47.2271C298.188 47.2166 298.466 47.0885 298.671 46.8699C298.876 46.6513 298.99 46.3592 298.99 46.0552C298.99 45.7512 298.876 45.4591 298.671 45.2404C298.466 45.0218 298.188 44.8937 297.893 44.8832C297.599 44.8937 297.32 45.0218 297.115 45.2404C296.911 45.4591 296.796 45.7512 296.796 46.0552C296.796 46.3592 296.911 46.6513 297.115 46.8699C297.32 47.0885 297.599 47.2166 297.893 47.2271ZM111.325 174.76C111.619 174.75 111.898 174.622 112.102 174.403C112.307 174.185 112.421 173.892 112.421 173.588C112.421 173.284 112.307 172.992 112.102 172.774C111.898 172.555 111.619 172.427 111.325 172.416C111.03 172.427 110.751 172.555 110.547 172.774C110.342 172.992 110.228 173.284 110.228 173.588C110.228 173.892 110.342 174.185 110.547 174.403C110.751 174.622 111.03 174.75 111.325 174.76ZM233.161 157.745C233.455 157.735 233.734 157.607 233.939 157.388C234.143 157.169 234.257 156.877 234.257 156.573C234.257 156.269 234.143 155.977 233.939 155.758C233.734 155.54 233.455 155.412 233.161 155.401C232.866 155.412 232.588 155.54 232.383 155.758C232.178 155.977 232.064 156.269 232.064 156.573C232.064 156.877 232.178 157.169 232.383 157.388C232.588 157.607 232.866 157.735 233.161 157.745ZM255.06 11.5122C255.354 11.5017 255.633 11.3736 255.838 11.155C256.042 10.9364 256.157 10.6443 256.157 10.3403C256.157 10.0363 256.042 9.74418 255.838 9.52554C255.633 9.3069 255.354 9.17882 255.06 9.16829C254.766 9.17882 254.487 9.3069 254.282 9.52554C254.078 9.74418 253.963 10.0363 253.963 10.3403C253.963 10.6443 254.078 10.9364 254.282 11.155C254.487 11.3736 254.766 11.5017 255.06 11.5122ZM296.301 228.248C296.596 228.237 296.874 228.109 297.079 227.89C297.284 227.672 297.398 227.38 297.398 227.076C297.398 226.772 297.284 226.48 297.079 226.261C296.874 226.042 296.596 225.914 296.301 225.904C296.007 225.914 295.728 226.042 295.523 226.261C295.319 226.48 295.204 226.772 295.204 227.076C295.204 227.38 295.319 227.672 295.523 227.89C295.728 228.109 296.007 228.237 296.301 228.248Z" fill="#FFF1CA"/>
<path d="M133.905 36.6605V43.1535L130.697 44.5733C130.697 44.5733 131.732 60.9988 139.361 56.6859C146.991 52.373 149.045 45.1358 147.41 44.5733L145.123 43.1535L144.847 36.9752L133.905 36.6605Z" fill="#FEEEC0"/>
<path d="M219.702 68.9004L193.792 73.0174C192.619 73.2049 191.421 73.1174 190.286 72.7613C189.151 72.4052 188.108 71.7897 187.235 70.9605C174.756 59.0776 166.516 53.1363 161.507 50.1703C161.503 50.1684 161.5 50.1642 161.496 50.1627L161.491 50.1608C157.003 47.505 147.508 44.1564 147.508 44.1564L147.604 44.6561L147.41 44.5734C138.509 63.7 130.697 44.5734 130.697 44.5734C130.697 44.5734 121.201 47.922 116.713 50.5778L116.709 50.5797C116.705 50.5812 116.701 50.5854 116.697 50.5873C111.688 53.5533 103.448 59.4947 90.9699 71.3775C90.0968 72.2067 89.054 72.8222 87.9188 73.1783C86.7836 73.5344 85.5853 73.6219 84.4128 73.4344L58.5028 69.3174L53.3286 82.912L83.2305 91.1629C85.3625 91.7513 87.5924 91.8582 89.7681 91.4764C91.9438 91.0947 94.0142 90.2332 95.8382 88.9508L115.095 75.4113L115.179 75.1223C115.574 90.2752 116.709 106.829 116.709 106.829L117.072 114.329H161.035L161.055 113.912H161.133L161.496 106.412C161.496 106.412 162.63 89.8582 163.026 74.7053L163.109 74.9943L182.366 88.5338C184.19 89.8163 186.261 90.6777 188.436 91.0594C190.612 91.4412 192.842 91.3343 194.974 90.746L224.876 82.495L219.702 68.9004Z" fill="#FBBC05"/>
<path d="M150.262 22.4017C150.262 13.1328 145.463 5.61896 139.543 5.61896C133.624 5.61896 128.825 13.1328 128.825 22.4017L128.825 22.4088C128.802 22.4083 128.78 22.4017 128.757 22.4017C128.287 22.3997 127.822 22.4934 127.388 22.6775C126.954 22.8615 126.559 23.1323 126.226 23.4742C125.894 23.8161 125.63 24.2225 125.45 24.6699C125.27 25.1174 125.177 25.5972 125.177 26.0817C125.177 26.5662 125.27 27.046 125.45 27.4935C125.63 27.9409 125.894 28.3473 126.226 28.6892C126.559 29.0311 126.954 29.3019 127.388 29.4859C127.822 29.67 128.287 29.7637 128.757 29.7617C129.133 29.7567 129.505 29.6897 129.861 29.5634C131.578 35.2448 135.262 39.1844 139.543 39.1844C143.819 39.1844 147.5 35.254 149.22 29.5833C149.556 29.6964 149.908 29.7565 150.262 29.7617C151.205 29.7577 152.108 29.3682 152.773 28.6785C153.439 27.9888 153.812 27.0551 153.812 26.0817C153.812 25.1083 153.439 24.1746 152.773 23.4849C152.108 22.7952 151.205 22.4057 150.262 22.4017Z" fill="#FEEEC0"/>
<path d="M130.006 25.6832C130.006 25.6832 129.37 12.7446 133.821 9.93185C133.821 9.93185 135.456 7.77541 140.088 12.8383C144.721 17.9013 149.223 15.1878 149.223 15.1878C149.223 15.1878 150.353 23.9018 149.626 25.6832C149.626 25.6832 156.166 14.151 148.99 8.2442C141.814 2.33745 137.908 4.40013 132.186 8.2442C132.186 8.2442 121.468 9.55682 130.006 25.6832Z" fill="#002009"/>
<path d="M138.865 23.2809C138.852 23.8627 138.797 24.4178 138.747 24.9664C138.689 25.4982 138.659 26.0328 138.654 26.5679C138.649 27.0849 138.74 27.5671 139.008 27.6827C139.497 27.7542 139.997 27.6912 140.455 27.4999C140.264 27.7197 140.041 27.9075 139.794 28.0565C139.517 28.2402 139.187 28.3169 138.861 28.2732C138.676 28.2287 138.505 28.1366 138.363 28.0053C138.222 27.8741 138.116 27.7081 138.054 27.5228C137.951 27.219 137.898 26.8994 137.898 26.5774C137.904 25.9897 137.996 25.4063 138.17 24.8465C138.328 24.2928 138.562 23.7655 138.865 23.2809ZM131.292 20.7547C131.292 20.7547 133.819 17.9621 136.79 20.2579L131.292 20.7547ZM140.996 20.5131C140.996 20.5131 143.632 17.8301 146.509 20.2501L140.996 20.5131Z" fill="#002009"/>
<path d="M134.732 25.0623C135.159 25.0623 135.504 24.5271 135.504 23.8669C135.504 23.2067 135.159 22.6715 134.732 22.6715C134.306 22.6715 133.96 23.2067 133.96 23.8669C133.96 24.5271 134.306 25.0623 134.732 25.0623Z" fill="#002009"/>
<path d="M143.543 24.7342C143.969 24.7342 144.315 24.1989 144.315 23.5387C144.315 22.8785 143.969 22.3433 143.543 22.3433C143.117 22.3433 142.771 22.8785 142.771 23.5387C142.771 24.1989 143.117 24.7342 143.543 24.7342Z" fill="#002009"/>
<path d="M126.512 26.7812C126.49 26.4492 126.569 26.1183 126.738 25.8351C126.911 25.5255 127.176 25.2814 127.493 25.1385C127.66 25.065 127.84 25.0284 128.022 25.0311C128.204 25.0338 128.383 25.0757 128.549 25.1541C128.852 25.2895 129.097 25.5348 129.237 25.8438C128.908 25.8084 128.645 25.7412 128.403 25.7446C128.189 25.7307 127.976 25.7705 127.781 25.8606C127.322 26.1107 126.895 26.4201 126.512 26.7812ZM152.702 26.7812C152.319 26.4201 151.893 26.1108 151.434 25.8606C151.238 25.7705 151.025 25.7307 150.811 25.7447C150.57 25.7412 150.306 25.8084 149.977 25.8439C150.117 25.5349 150.362 25.2895 150.666 25.1541C150.831 25.0757 151.01 25.0338 151.192 25.0311C151.374 25.0284 151.554 25.065 151.721 25.1385C152.039 25.2814 152.303 25.5256 152.476 25.8351C152.645 26.1183 152.724 26.4492 152.702 26.7812ZM134.277 37.0127C135.776 38.0204 137.501 38.6109 139.286 38.7268C140.159 38.7697 141.033 38.6606 141.871 38.4041C142.301 38.2823 142.724 38.1323 143.135 37.9551C143.556 37.7838 143.948 37.5476 144.386 37.3679C144.049 37.7012 143.69 38.01 143.313 38.2923C142.92 38.565 142.502 38.7955 142.064 38.9802C141.178 39.3722 140.218 39.5523 139.255 39.507C138.294 39.4668 137.352 39.2193 136.49 38.7802C135.639 38.3604 134.885 37.7578 134.277 37.0127Z" fill="#002009"/>
<path d="M133.769 29.7672C134.064 29.7566 134.343 29.6286 134.547 29.4099C134.752 29.1913 134.866 28.8992 134.866 28.5952C134.866 28.2912 134.752 27.9991 134.547 27.7805C134.343 27.5618 134.064 27.4337 133.769 27.4232C133.475 27.4337 133.196 27.5618 132.992 27.7805C132.787 27.9991 132.673 28.2912 132.673 28.5952C132.673 28.8992 132.787 29.1913 132.992 29.4099C133.196 29.6286 133.475 29.7566 133.769 29.7672ZM145.124 29.0171C145.418 29.0066 145.697 28.8785 145.901 28.6599C146.106 28.4412 146.22 28.1491 146.22 27.8451C146.22 27.5411 146.106 27.249 145.901 27.0304C145.697 26.8118 145.418 26.6837 145.124 26.6732C144.829 26.6837 144.55 26.8118 144.346 27.0304C144.141 27.249 144.027 27.5411 144.027 27.8451C144.027 28.1491 144.141 28.4412 144.346 28.6599C144.55 28.8785 144.829 29.0066 145.124 29.0171Z" fill="#602722"/>
<path d="M136.134 32.1151C136.134 32.1151 139.881 36.5922 143.125 30.8821L136.134 32.1151Z" fill="#002009"/>
<path d="M118.344 114.329V243.34H135.057L137.237 130.831H141.597L149.954 243.34H166.667L159.4 114.329H118.344Z" fill="#FA8A81"/>
<path d="M153.587 247.841C153.587 247.841 149.045 260.967 152.86 262.842H156.675C156.675 262.842 158.492 257.591 161.035 262.842H184.289C184.289 262.842 185.742 258.716 180.11 256.841C174.478 254.966 165.032 247.841 165.032 247.841H153.587Z" fill="#2C63BF"/>
<path d="M152.86 243.34L153.587 247.841H165.032V243.34H152.86Z" fill="#FEEEC0"/>
<path d="M132.246 247.841C132.246 247.841 136.788 260.967 132.973 262.842H129.158C129.158 262.842 127.341 257.591 124.798 262.842H101.545C101.545 262.842 100.091 258.716 105.723 256.841C111.355 254.966 120.801 247.841 120.801 247.841H132.246Z" fill="#2C63BF"/>
<path d="M132.973 243.34L132.247 247.841H120.802V243.34H132.973Z" fill="#FEEEC0"/>
<path d="M143.102 130.509C141.887 130.785 140.645 130.916 139.401 130.9C138.156 130.918 136.914 130.787 135.699 130.509C136.914 130.232 138.156 130.101 139.401 130.119C140.645 130.103 141.887 130.234 143.102 130.509Z" fill="#E0756C"/>
<path d="M117.967 91.9117C118.134 93.1068 118.392 94.2865 118.738 95.4398C118.891 96.0197 119.1 96.582 119.277 97.152L119.939 98.8131C120.878 100.995 122.141 103.012 123.681 104.792C125.205 106.585 127.008 108.101 129.017 109.279C130.014 109.894 131.056 110.427 132.134 110.874C133.2 111.36 134.338 111.651 135.441 112.087C134.867 111.964 134.293 111.834 133.719 111.695L132.856 111.49L132.423 111.387L132.006 111.234C130.881 110.848 129.787 110.37 128.736 109.805C126.6 108.694 124.691 107.168 123.115 105.31C121.522 103.47 120.265 101.347 119.405 99.045C118.526 96.7722 118.039 94.3579 117.967 91.9117ZM123.194 94.0046C123.597 95.1379 124.087 96.2366 124.658 97.2905C124.923 97.825 125.241 98.3301 125.529 98.8497L126.511 100.333C127.869 102.265 129.509 103.968 131.375 105.379C133.225 106.806 135.295 107.903 137.497 108.625C138.596 109.012 139.722 109.31 140.866 109.516C142.007 109.763 143.179 109.803 144.345 109.994C143.76 109.997 143.172 109.992 142.582 109.98L141.696 109.964L141.252 109.956L140.814 109.896C139.635 109.76 138.47 109.527 137.327 109.199C135.014 108.57 132.84 107.486 130.925 106.007C128.996 104.549 127.34 102.742 126.035 100.674C124.718 98.6393 123.756 96.382 123.194 94.0046Z" fill="#EDB206"/>
<path d="M155.347 62.71H142.505V79.2427H155.347V62.71Z" fill="#EDB206"/>
<path d="M266.231 36.6426V43.9169L269.131 44.5732C269.131 44.5732 268.404 60.9808 260.774 56.6679C253.144 52.3551 250.783 45.1357 252.418 44.5732L254.961 43.7293L255.289 36.9573L266.231 36.6426Z" fill="#B8534B"/>
<path d="M249.874 22.3838C249.874 13.1149 254.673 5.60107 260.592 5.60107C266.512 5.60107 271.311 13.1149 271.311 22.3838L271.311 22.3909C271.334 22.3904 271.355 22.3838 271.379 22.3838C271.848 22.3818 272.314 22.4755 272.748 22.6596C273.182 22.8436 273.577 23.1144 273.909 23.4563C274.242 23.7982 274.506 24.2046 274.686 24.652C274.866 25.0995 274.959 25.5793 274.959 26.0638C274.959 26.5483 274.866 27.0281 274.686 27.4756C274.506 27.923 274.242 28.3294 273.909 28.6713C273.577 29.0132 273.182 29.284 272.748 29.468C272.314 29.6521 271.848 29.7458 271.379 29.7438C271.003 29.7388 270.63 29.6719 270.275 29.5455C268.557 35.2269 264.873 39.1665 260.592 39.1665C256.316 39.1665 252.636 35.2361 250.916 29.5654C250.579 29.6785 250.228 29.7386 249.874 29.7438C249.405 29.7458 248.939 29.6521 248.505 29.468C248.071 29.284 247.676 29.0132 247.344 28.6713C247.011 28.3294 246.747 27.923 246.567 27.4756C246.387 27.0281 246.294 26.5483 246.294 26.0638C246.294 25.5793 246.387 25.0995 246.567 24.652C246.747 24.2046 247.011 23.7982 247.344 23.4563C247.676 23.1144 248.071 22.8436 248.505 22.6596C248.939 22.4755 249.405 22.3818 249.874 22.3838Z" fill="#B8534B"/>
<path d="M270.13 25.6654C270.13 25.6654 270.766 12.7268 266.315 9.91403C266.315 9.91403 264.68 7.75759 260.047 12.8205C255.415 17.8835 250.912 15.17 250.912 15.17C250.912 15.17 249.783 23.884 250.51 25.6654C250.51 25.6654 243.97 14.1331 251.146 8.22638C258.321 2.31963 262.227 4.3823 267.95 8.22638C267.95 8.22638 278.668 9.53899 270.13 25.6654Z" fill="#002009"/>
<path d="M261.27 23.2631C261.574 23.7477 261.808 24.275 261.966 24.8287C262.14 25.3885 262.231 25.9719 262.238 26.5596C262.238 26.8816 262.185 27.2012 262.082 27.505C262.02 27.6903 261.913 27.8563 261.772 27.9875C261.631 28.1188 261.46 28.2109 261.275 28.2554C260.949 28.2991 260.619 28.2224 260.342 28.0387C260.095 27.8897 259.872 27.7019 259.681 27.4821C260.139 27.6734 260.638 27.7364 261.128 27.6649C261.395 27.5492 261.487 27.0671 261.482 26.5501C261.477 26.015 261.446 25.4804 261.389 24.9486C261.339 24.3999 261.284 23.8449 261.27 23.2631ZM268.856 19.4988C268.856 19.4988 265.436 18.0343 263.65 21.3924L268.856 19.4988ZM258.729 21.5616C258.729 21.5616 257.294 18.0386 253.737 19.1313L258.729 21.5616Z" fill="#002009"/>
<path d="M265.403 25.0443C265.829 25.0443 266.175 24.5091 266.175 23.8489C266.175 23.1886 265.829 22.6534 265.403 22.6534C264.977 22.6534 264.631 23.1886 264.631 23.8489C264.631 24.5091 264.977 25.0443 265.403 25.0443Z" fill="#002009"/>
<path d="M256.592 24.7161C257.019 24.7161 257.364 24.1809 257.364 23.5207C257.364 22.8605 257.019 22.3253 256.592 22.3253C256.166 22.3253 255.82 22.8605 255.82 23.5207C255.82 24.1809 256.166 24.7161 256.592 24.7161Z" fill="#002009"/>
<path d="M273.624 26.7633C273.24 26.4022 272.814 26.0928 272.355 25.8427C272.16 25.7526 271.946 25.7128 271.733 25.7267C271.491 25.7233 271.228 25.7904 270.899 25.826C271.039 25.517 271.284 25.2716 271.587 25.1362C271.752 25.0578 271.932 25.0159 272.113 25.0132C272.295 25.0105 272.476 25.0471 272.643 25.1206C272.96 25.2635 273.224 25.5077 273.397 25.8172C273.567 26.1004 273.646 26.4312 273.624 26.7633ZM247.433 26.7633C247.411 26.4312 247.49 26.1003 247.66 25.8171C247.833 25.5076 248.097 25.2634 248.414 25.1205C248.581 25.047 248.762 25.0104 248.944 25.0131C249.125 25.0158 249.305 25.0577 249.47 25.1361C249.773 25.2715 250.018 25.5169 250.158 25.8259C249.829 25.7904 249.566 25.7233 249.324 25.7267C249.111 25.7127 248.897 25.7525 248.702 25.8427C248.243 26.0928 247.817 26.4021 247.433 26.7633ZM265.858 36.9948C265.251 37.7398 264.497 38.3426 263.646 38.7627C262.783 39.2014 261.841 39.4488 260.881 39.489C259.918 39.5345 258.957 39.3544 258.071 38.9622C257.633 38.7776 257.215 38.5471 256.823 38.2743C256.445 37.9921 256.087 37.6832 255.75 37.35C256.188 37.5297 256.58 37.7658 257 37.9371C257.412 38.1143 257.834 38.2643 258.265 38.3861C259.103 38.6427 259.977 38.7518 260.85 38.7089C262.634 38.5929 264.36 38.0024 265.858 36.9948ZM263.968 30.7983C263.968 30.7983 261.863 35.7206 257.64 31.6421L263.968 30.7983Z" fill="#002009"/>
<path d="M297.772 125.47L300.646 142.812C300.8 143.742 300.766 144.695 300.547 145.611C300.328 146.527 299.929 147.386 299.373 148.135L293.61 155.907C293.456 156.114 293.258 156.282 293.032 156.398C292.805 156.513 292.556 156.573 292.304 156.573C291.867 156.573 291.449 156.394 291.14 156.076C290.832 155.758 290.659 155.326 290.659 154.875C290.659 153.986 290.946 153.122 291.476 152.42L295.896 146.561C295.896 146.561 295.315 138.552 295.185 139.753L292.894 143.61C292.788 143.788 292.641 143.935 292.465 144.038C292.289 144.141 292.091 144.196 291.89 144.199C291.688 144.202 291.488 144.152 291.31 144.054C291.132 143.956 290.981 143.813 290.87 143.638C290.729 143.421 290.659 143.162 290.671 142.901C290.728 141.936 290.992 140.997 291.443 140.15L292.081 138.952C292.081 138.952 290.659 130.008 292.469 125.47L297.772 125.47Z" fill="#B8534B"/>
<path d="M259.592 60.0781L261.516 66.7698L240.508 95.2608C237.247 99.7792 231.108 99.5624 228.377 93.8796C228.377 93.8796 228.17 89.7367 228.717 88.5178C231.176 83.0376 233.856 82.3547 238.11 78.6726L259.592 60.0781Z" fill="#8C443E"/>
<path d="M260.349 60.8594L262.273 67.5511L241.265 96.0421C238.004 100.561 231.865 100.344 229.134 94.6609C229.134 94.6609 228.927 90.5181 229.474 89.2992C231.933 83.8189 234.613 83.1361 238.867 79.454L260.349 60.8594Z" fill="#8C443E"/>
<path d="M211.889 78.3632C211.889 78.3632 211.743 75.3562 207.206 70.6483C202.669 65.9404 198.612 62.7346 200.992 66.7193L202.855 69.7248C202.855 69.7248 198.01 67.8539 195.219 66.4785C194.484 66.1016 193.651 65.9783 192.844 66.1266C192.036 66.2749 191.295 66.687 190.732 67.3023C189.699 68.4792 189.746 69.7513 192.656 71.974C197.008 75.2982 203.749 80.3577 205.056 80.8539C205.509 81.0257 211.889 78.3632 211.889 78.3632Z" fill="#B8534B"/>
<path d="M238.974 114.329H282.756L283.119 106.829L289.296 132.706L300.741 130.831C297.596 92.6854 290.291 68.0057 286.465 57.2138C285.775 55.2709 284.702 53.4968 283.314 52.0039C281.926 50.511 280.253 49.3316 278.4 48.5404L269.131 44.5732C269.131 44.5732 261.319 63.6998 252.418 44.5732L243.148 48.5404C239.403 50.1433 234.554 53.177 233.161 57.1071C231.428 61.9932 228.179 72.7152 225.724 77.6741C225.562 77.9995 225.334 78.2844 225.054 78.5087C224.775 78.733 224.451 78.8913 224.106 78.9725C223.76 79.0536 223.402 79.0555 223.056 78.9782C222.71 78.9009 222.385 78.7461 222.103 78.5248L208.338 70.0479L203.041 80.6043L220.582 95.6428C222.907 97.2948 225.769 97.938 228.549 97.4338C231.33 96.9296 233.807 95.3183 235.448 92.947L238.429 88.6394L238.793 114.329H282.574" fill="#4285F4"/>
<path d="M205.691 71.0958C205.177 70.9786 204.677 70.7981 204.204 70.5582C203.728 70.3285 203.276 70.0492 202.855 69.7246C203.122 69.7488 203.385 69.8053 203.639 69.8929C203.891 69.9737 204.136 70.0733 204.374 70.1908C204.855 70.4209 205.3 70.7261 205.691 71.0958ZM199.02 70.2561C198.406 70.051 197.804 69.8084 197.217 69.5297C196.627 69.2615 196.054 68.9552 195.49 68.6309C194.926 68.3058 194.38 67.9466 193.856 67.555C193.326 67.1703 192.837 66.7269 192.4 66.2327C193.467 66.9812 194.569 67.6294 195.684 68.2768C196.793 68.9315 197.918 69.5583 199.02 70.2561ZM196.409 72.9712C195.833 72.83 195.269 72.6428 194.721 72.4112C194.17 72.186 193.633 71.9278 193.112 71.6379C192.057 71.0723 191.102 70.3265 190.287 69.432C190.787 69.7617 191.275 70.0905 191.777 70.3961C192.284 70.6937 192.785 70.9985 193.3 71.2804L196.409 72.9712ZM197.84 71.8038C197.157 71.6162 196.486 71.3813 195.833 71.1007C195.176 70.827 194.536 70.5131 193.915 70.1607C193.288 69.8121 192.693 69.4063 192.137 68.9483C191.559 68.5099 191.08 67.9484 190.732 67.3021C191.192 67.8435 191.726 68.3132 192.317 68.6969C192.897 69.0902 193.491 69.4645 194.106 69.8048C195.325 70.5056 196.584 71.1343 197.84 71.8038Z" fill="#07160B"/>
<path d="M214.207 240.235L215.77 249.634L227.013 258.212C227.013 258.212 213.797 263.135 207.121 255.822L208.483 249.352L205.35 241.055L214.207 240.235ZM172.557 240.235L172.508 249.634L161.265 258.212C161.265 258.212 174.481 263.135 181.158 255.822L179.795 249.352L181.415 241.055L172.557 240.235Z" fill="#8C443E"/>
<path d="M192.955 103.168L187.448 113.345C183.642 120.379 181.088 128.062 179.909 136.027L164.671 242.763L220.738 241.055L223.917 139.815C224.293 130.787 222.66 121.79 219.144 113.514C217.583 109.767 215.492 106.28 212.939 103.168L192.955 103.168Z" fill="#EA4335"/>
<path d="M187.005 34.6344C187.096 35.9587 187.586 35.9913 187.886 37.4677C188.318 39.5984 187.401 40.0453 187.837 41.751C188.085 42.7213 188.408 42.6798 190.057 45.0951C191.758 47.5871 191.386 47.5895 192.28 48.5868C193.854 50.3441 194.568 49.844 196.355 51.7395C197.537 52.9948 197.403 53.4035 198.707 54.6374C199.575 55.3792 200.499 56.0488 201.47 56.6398C204.826 58.9464 205.031 59.1709 205.821 59.3432C207.045 59.5582 208.3 59.4667 209.483 59.0765C210.81 58.7276 210.847 58.4291 213.077 57.5483C215.365 56.6448 215.501 56.8896 216.34 56.2904C217.605 55.3863 217.337 54.799 218.851 53.4258C220.283 52.1281 220.683 52.5062 221.526 51.4434C222.601 50.0874 222.059 49.3325 223.17 48.1562C224.012 47.2643 224.514 47.4964 225.422 46.4789C225.94 45.7984 226.357 45.0422 226.66 44.235C227.88 41.8348 228.414 42.0975 229.149 40.3374C229.543 39.3941 229.29 39.5573 230.068 36.6242C230.686 34.2953 230.801 34.3599 230.86 33.6039C231.038 31.3146 229.947 31.1881 230.341 29.5301C230.58 28.5236 231.243 27.4725 230.866 26.0532C230.509 23.4059 230.247 21.4661 228.836 19.6721C228.073 18.7017 227.935 18.9958 225.622 16.6467C224.158 15.1586 223.848 14.6693 222.847 14.054C221.54 13.2503 221.31 13.6183 219.672 12.7997C217.549 11.7383 217.605 10.9542 215.899 10.3781C214.776 9.99856 214.765 10.3435 212.601 10.0126C209.856 9.59293 209.761 9.02067 208.382 9.16183C206.905 9.31298 206.74 9.99691 204.604 10.6435C202.819 11.1837 202.542 10.6478 201.18 11.1797C199.796 11.7205 199.923 12.2285 198.222 13.1561C196.206 14.2553 195.621 13.7635 194.68 14.7159C193.74 15.6662 194.214 16.2658 193.182 18.1473C192.339 19.6847 191.926 19.4605 190.537 21.4579C189.747 22.6418 189.057 23.893 188.473 25.1979C187.901 26.1635 187.489 27.2213 187.255 28.3275C187.106 29.6365 187.535 29.7789 187.466 31.4234C187.395 33.1422 186.912 33.3027 187.005 34.6344Z" fill="#002009"/>
<path d="M196.801 40.4917C196.815 40.4914 196.829 40.4956 196.843 40.4955C197.095 32.9907 201.7 26.9657 207.494 26.8296C213.287 26.6935 218.153 32.4959 218.736 39.9811C218.75 39.9806 218.763 39.9757 218.777 39.9754C219.653 40.0526 220.47 40.4608 221.071 41.1218C221.673 41.7827 222.016 42.6497 222.036 43.5563C222.056 44.4629 221.751 45.3452 221.179 46.0337C220.608 46.7222 219.81 47.1684 218.939 47.2866C218.594 47.2896 218.251 47.2282 217.928 47.1053C216.721 50.8338 214.352 53.7509 211.4 55.0528L211.411 55.0539L211.501 64.3422L211.106 71.1507L202.051 70.4725L202.238 64.5599L202.952 54.2324L202.976 54.2347C200.668 52.6143 198.914 50.2835 197.965 47.5744C197.647 47.7124 197.307 47.7898 196.963 47.803C196.087 47.7258 195.27 47.3175 194.669 46.6566C194.067 45.9956 193.724 45.1286 193.704 44.222C193.684 43.3154 193.989 42.4332 194.561 41.7447C195.132 41.0562 195.93 40.61 196.801 40.4917ZM175.323 134.11L173.721 146.396C173.638 147.062 173.701 147.738 173.905 148.374C174.109 149.011 174.449 149.593 174.901 150.075L179.652 155.281C179.786 155.423 179.948 155.533 180.127 155.604C180.306 155.675 180.497 155.705 180.689 155.692C181.012 155.69 181.321 155.557 181.548 155.321C181.776 155.084 181.903 154.765 181.903 154.431C181.867 153.798 181.61 153.199 181.181 152.744L177.54 148.823C177.54 148.823 177.702 143.181 177.846 144.018L179.763 146.625C179.859 146.747 179.982 146.844 180.121 146.908C180.26 146.972 180.412 147.002 180.564 146.996C180.716 146.99 180.865 146.947 180.998 146.871C181.132 146.795 181.246 146.688 181.333 146.559C181.433 146.404 181.479 146.219 181.461 146.034C181.379 145.353 181.14 144.702 180.763 144.137L180.224 143.324C180.224 143.324 181.004 136.991 179.436 133.885L175.323 134.11Z" fill="#8C443E"/>
<path d="M177.862 93.5486L174.619 139.921L180.12 137.365L187.131 97.7342L177.862 93.5486Z" fill="#8C443E"/>
<path d="M177.089 100.965L178.924 76.2204C179.078 74.1541 179.705 72.155 180.754 70.388C181.803 68.6209 183.243 67.1364 184.957 66.0567C186.967 64.7852 189.146 63.8243 191.425 63.2049C194.96 62.3394 198.581 61.9063 202.213 61.9145C202.213 61.9145 206.028 72.7903 211.478 61.9145L218.998 64.5299C221.16 65.2817 223.149 66.4847 224.84 68.0641C226.532 69.6435 227.89 71.5654 228.831 73.7102L236.958 87.5112L230.483 95.6986L219.553 87.8763L212.932 103.168H192.948L188.534 87.5112L186.926 100.965L177.089 100.965Z" fill="#34A853"/>
<path d="M87.5715 34.6709C90.6471 34.6709 93.1404 32.0974 93.1404 28.9228C93.1404 25.7482 90.6471 23.1746 87.5715 23.1746C84.4959 23.1746 82.0027 25.7482 82.0027 28.9228C82.0027 32.0974 84.4959 34.6709 87.5715 34.6709Z" fill="#002009"/>
<path d="M62.439 35.8429C65.5145 35.8429 68.0078 33.2693 68.0078 30.0947C68.0078 26.9201 65.5145 24.3466 62.439 24.3466C59.3634 24.3466 56.8701 26.9201 56.8701 30.0947C56.8701 33.2693 59.3634 35.8429 62.439 35.8429Z" fill="#002009"/>
<path d="M86.981 42.317C86.9669 42.3162 86.9537 42.32 86.9397 42.3194C86.9247 34.81 82.5132 28.6329 76.727 28.3014C70.9408 27.9698 65.8941 33.605 65.0739 41.0665C65.0599 41.0655 65.0472 41.0602 65.0331 41.0594C64.1558 41.107 63.3264 41.4875 62.7043 42.1278C62.0822 42.7681 61.7112 43.623 61.6625 44.5285C61.6138 45.4339 61.8908 46.326 62.4405 47.0334C62.9901 47.7408 63.7736 48.2137 64.6404 48.3613C64.985 48.376 65.3293 48.3261 65.6567 48.2142C66.1109 52.8454 67.2296 55.7266 71.8677 57.8132L71.5338 65.6588L71.7129 72.4769L80.7848 72.1046L81.1168 65.9779L80.4472 57.6782C84.1893 56.6983 85.5188 51.0366 85.594 49.3566C85.9074 49.5052 86.2442 49.5941 86.5882 49.6189C87.4656 49.5712 88.2949 49.1907 88.917 48.5505C89.5391 47.9102 89.9102 47.0552 89.9588 46.1498C90.0075 45.2444 89.7305 44.3523 89.1808 43.6449C88.6312 42.9375 87.8478 42.4646 86.981 42.317Z" fill="#B8534B"/>
<path d="M72.9833 58.5184C74.0908 58.5173 75.1219 58.5814 76.1523 58.5539C76.666 58.5436 77.1716 58.4967 77.6825 58.4376C78.205 58.3538 78.7227 58.241 79.2333 58.0995C78.8423 58.5207 78.3595 58.8394 77.8251 59.0293C77.2912 59.2142 76.7339 59.3171 76.171 59.3349C75.6152 59.3423 75.0607 59.2802 74.5194 59.1499C73.9771 59.0283 73.4581 58.815 72.9833 58.5184ZM75.1101 43.1393C75.0655 43.7192 74.9809 44.2705 74.9012 44.8152C74.8154 45.343 74.7558 45.875 74.7227 46.4091C74.6895 46.9249 74.755 47.4113 75.0159 47.5426C75.5009 47.6419 76.0027 47.6075 76.4707 47.443C76.2679 47.6513 76.0351 47.8259 75.7806 47.9607C75.4946 48.1281 75.1604 48.1858 74.8372 48.1236C74.6549 48.0686 74.489 47.9668 74.3552 47.8277C74.2213 47.6886 74.1238 47.5167 74.0718 47.3282C73.9853 47.0188 73.9499 46.6967 73.967 46.3752C74.0051 45.7889 74.1281 45.2117 74.3317 44.663C74.5187 44.1191 74.7809 43.6059 75.1101 43.1393ZM67.2886 39.6599C67.2886 39.6599 70.0385 37.101 72.8078 39.651L67.2886 39.6599ZM77.4936 39.8806C77.4936 39.8806 79.9801 37.0491 82.9839 39.2986L77.4936 39.8806ZM72.1038 50.0231C72.1038 50.0231 74.5504 55.3729 79.159 50.7694L72.1038 50.0231Z" fill="#002009"/>
<path d="M71.7229 43.5323C71.7584 42.8731 71.442 42.319 71.0162 42.2946C70.5905 42.2702 70.2166 42.7848 70.1811 43.444C70.1457 44.1032 70.4621 44.6573 70.8878 44.6817C71.3136 44.7061 71.6875 44.1915 71.7229 43.5323Z" fill="#002009"/>
<path d="M80.5376 43.7088C80.5731 43.0496 80.2567 42.4954 79.8309 42.471C79.4052 42.4466 79.0313 42.9613 78.9958 43.6204C78.9604 44.2796 79.2768 44.8338 79.7025 44.8582C80.1283 44.8826 80.5022 44.368 80.5376 43.7088Z" fill="#002009"/>
<path d="M88.78 46.6457C88.4167 46.2633 88.0077 45.9301 87.5628 45.6542C87.3728 45.5528 87.1617 45.5009 86.9478 45.5027C86.7065 45.4856 86.44 45.5371 86.1096 45.5539C86.2661 45.2534 86.5238 45.0224 86.834 44.9046C87.0031 44.8357 87.1844 44.8041 87.3661 44.8119C87.5478 44.8196 87.7259 44.8665 87.889 44.9496C88.198 45.1103 88.449 45.3692 88.6047 45.6882C88.7587 45.9806 88.82 46.3155 88.78 46.6457ZM62.63 45.1475C62.6256 44.8147 62.7225 44.4889 62.9069 44.2159C63.096 43.9166 63.3731 43.6878 63.6975 43.5632C63.8685 43.4994 64.0506 43.4732 64.232 43.4863C64.4133 43.4993 64.5901 43.5514 64.7509 43.6391C65.0464 43.7917 65.2777 44.0506 65.4012 44.367C65.0746 44.3128 64.8152 44.2312 64.5735 44.2205C64.3612 44.1942 64.1458 44.2217 63.9461 44.3006C63.4744 44.5242 63.0322 44.8088 62.63 45.1475ZM68.1099 35.1309C71.3992 35.1786 70.8703 32.6549 71.2874 30.6016C71.2874 30.6016 73.2429 35.2607 77.1284 30.9363C78.0131 29.9516 77.5168 37.3836 82.0502 32.197C82.7521 31.3939 83.3274 33.6365 84.2188 35.4224C84.7537 36.4939 85.4024 37.4011 86.2606 37.3873L86.1914 44.0325C86.1914 44.0325 95.4207 27.7985 75.5212 24.4986C73.3762 24.1917 71.191 24.5225 69.2218 25.4522C59.3583 30.695 62.5444 40.6574 66.1862 44.9941C66.1862 44.9941 64.4058 35.0773 68.1099 35.1309Z" fill="#002009"/>
<path d="M74.7026 25.2263L73.1191 22.9524C73.1191 22.9524 69.344 23.3699 71.5357 21.9461C73.7274 20.5223 74.1431 21.6729 74.1205 22.0942L74.7026 25.2263Z" fill="#002009"/>
<path d="M107.796 135.643L109.398 147.929C109.481 148.594 109.418 149.27 109.214 149.907C109.01 150.544 108.67 151.125 108.218 151.608L103.467 156.813C103.333 156.955 103.171 157.065 102.992 157.136C102.813 157.207 102.622 157.238 102.43 157.225C102.107 157.223 101.798 157.089 101.571 156.853C101.343 156.617 101.216 156.297 101.216 155.964C101.252 155.33 101.509 154.731 101.938 154.277L105.579 150.356C105.579 150.356 105.417 144.714 105.273 145.551L103.357 148.158C103.26 148.279 103.137 148.376 102.998 148.441C102.859 148.505 102.708 148.535 102.555 148.528C102.403 148.522 102.254 148.479 102.121 148.403C101.987 148.327 101.873 148.221 101.786 148.091C101.686 147.937 101.64 147.751 101.658 147.566C101.74 146.885 101.979 146.235 102.356 145.67L102.895 144.857C102.895 144.857 102.115 138.523 103.683 135.417L107.796 135.643Z" fill="#B8534B"/>
<path d="M105.257 95.0807L108.5 141.453L102.999 138.898L95.988 99.2663L105.257 95.0807Z" fill="#B8534B"/>
<path d="M91.585 113.506L90.8604 113.732L90.9698 114.106L91.6944 113.88L91.585 113.506Z" fill="#002009"/>
<path d="M94.2006 125.107L93.97 124.321L94.6944 124.095L94.925 124.881L94.2006 125.107ZM93.7394 123.536L93.5087 122.751L94.2331 122.523L94.4637 123.309L93.7394 123.536ZM93.2774 121.964L93.0467 121.178L93.7711 120.952L94.0017 121.738L93.2774 121.964ZM92.8161 120.392L92.5855 119.606L93.3099 119.381L93.5405 120.166L92.8161 120.392ZM92.3548 118.821L92.1242 118.035L92.8486 117.809L93.0792 118.595L92.3548 118.821ZM91.8928 117.249L91.6622 116.464L92.3866 116.238L92.6172 117.024L91.8928 117.249ZM91.4316 115.678L91.2009 114.892L91.9253 114.666L92.1559 115.452L91.4316 115.678Z" fill="#002009"/>
<path d="M95.1554 125.666L94.4312 125.894L94.5413 126.267L95.2655 126.04L95.1554 125.666Z" fill="#002009"/>
<path d="M106.03 102.497L104.195 77.753C104.042 75.6866 103.414 73.6876 102.365 71.9205C101.316 70.1534 99.8757 68.6689 98.162 67.5893C96.1524 66.3177 93.9732 65.3569 91.6938 64.7375C88.1592 63.872 84.5383 63.4389 80.9056 63.4471C80.9056 63.4471 77.0906 74.3229 71.6406 63.4471L64.1206 66.0625C61.9591 66.8143 59.9705 68.0173 58.2789 69.5967C56.5872 71.1761 55.2286 73.098 54.2877 75.2428L46.1614 89.0437V105.322L63.5662 89.4088L70.1873 104.701H90.1707L94.5847 89.0437L96.1927 102.497L106.03 102.497Z" fill="#EA4335"/>
<path d="M59.4688 80.8859C60.3848 82.1697 61.184 83.5381 61.8562 84.9737C62.5587 86.3938 63.1311 87.8786 63.566 89.4086C62.6485 88.1258 61.8493 86.7572 61.1786 85.3208C60.4775 83.9 59.9051 82.4154 59.4688 80.8859ZM94.5845 89.0435C94.8603 87.1473 95.2768 85.2757 95.8304 83.4454C96.3513 81.6046 97.0099 79.8085 97.8004 78.0731C97.5263 79.9697 97.1097 81.8416 96.5545 83.6716C96.0322 85.5117 95.3736 87.3076 94.5845 89.0435Z" fill="#B7291D"/>
<path d="M43.5259 60.097L37.8574 63.9037L35.9552 99.6544C35.8756 100.912 36.148 102.167 36.7399 103.27C37.3318 104.373 38.2183 105.276 39.2938 105.874C40.3692 106.471 41.5883 106.736 42.8059 106.639C44.0234 106.541 45.1882 106.084 46.1613 105.323C48.4166 100.086 49.1258 94.2801 48.2002 88.6301L43.5259 60.097Z" fill="#B8534B"/>
<path d="M44.0937 66.4293C44.0937 66.4293 45.5865 64.174 44.8112 58.2031C44.0358 52.2322 42.809 47.6186 42.4104 51.8454L42.1583 55.0715C42.1583 55.0715 39.6527 50.9763 38.367 48.4016C38.0365 47.7132 37.5005 47.1525 36.838 46.8021C36.1755 46.4518 35.4215 46.3303 34.6871 46.4555C33.3157 46.7213 32.673 47.6665 33.594 50.9205C34.9716 55.7873 37.1525 63.2604 37.8333 64.3594C38.0692 64.7401 44.0937 66.4293 44.0937 66.4293Z" fill="#B8534B"/>
<path d="M43.4789 57.6687C43.1716 57.2908 42.9071 56.8779 42.6905 56.438C42.4709 56.0012 42.2927 55.5436 42.1582 55.0715C42.505 55.418 42.7923 55.8228 43.0078 56.2686C43.2312 56.7087 43.39 57.1805 43.4789 57.6687Z" fill="#07160B"/>
<path d="M95.7217 249.475L98.9729 173.589L99.2507 128.559C101.286 132.196 99.7596 123.164 96.1926 114.919C94.632 111.172 92.5408 107.685 89.9873 104.572H70.004L64.497 114.749C60.6903 121.784 58.1367 129.466 56.9576 137.432L43.0049 242.605L41.8625 249.475L30.6194 258.054C30.6194 258.054 43.8356 262.977 50.5119 255.664L49.1494 249.194L78.7013 129.887H79.7811L88.4348 249.194L87.0723 255.664C93.7485 262.977 106.965 258.054 106.965 258.054L95.7217 249.475Z" fill="#B8534B"/>
<path d="M111.325 262.836C111.325 262.836 96.4734 263.124 92.9309 259.675V262.842H86.3909C86.3909 262.842 84.3364 251.552 87.8162 252.131C91.2959 252.71 103.683 262.472 103.961 255.763L108.821 258.345C109.575 258.745 110.208 259.353 110.649 260.1C111.091 260.847 111.325 261.706 111.325 262.582V262.836Z" fill="#EA4335"/>
<path d="M70.0864 104.572L64.5794 114.749C60.7727 121.784 58.2191 129.466 57.04 137.432L51.6833 173.571L99.9019 173.589L101.048 141.22C101.424 132.192 99.7909 123.195 96.2749 114.919C94.7144 111.172 92.6231 107.685 90.0697 104.572L70.0864 104.572Z" fill="#4285F4"/>
<path d="M26.2593 262.836C26.2593 262.836 41.1105 263.124 44.653 259.675V262.842H51.193C51.193 262.842 53.2476 251.552 49.7678 252.131C46.288 252.71 33.901 262.472 33.6226 255.763L28.7631 258.345C28.0089 258.745 27.3763 259.353 26.9346 260.1C26.4929 260.847 26.2593 261.706 26.2593 262.582V262.836Z" fill="#EA4335"/>
<path d="M210.241 55.4747C209.758 55.7552 209.232 55.9509 208.686 56.0538C208.141 56.166 207.585 56.2092 207.03 56.1828C206.468 56.1462 205.914 56.0246 205.386 55.8219C204.858 55.614 204.385 55.279 204.008 54.8448C204.514 55.0036 205.028 55.134 205.547 55.2355C206.056 55.3114 206.56 55.3755 207.073 55.4034C208.102 55.4652 209.134 55.4362 210.241 55.4747ZM208.64 41.7139C208.954 42.1914 209.2 42.7132 209.37 43.2632C209.556 43.8186 209.66 44.3995 209.68 44.9868C209.687 45.3087 209.641 45.6294 209.545 45.9356C209.487 46.1223 209.384 46.2908 209.246 46.4253C209.108 46.5598 208.939 46.656 208.755 46.7048C208.43 46.7562 208.098 46.6873 207.817 46.5102C207.567 46.367 207.34 46.1846 207.144 45.9696C207.606 46.1499 208.107 46.2011 208.595 46.118C208.859 45.9959 208.94 45.5118 208.923 44.9953C208.907 44.4604 208.865 43.9267 208.795 43.3964C208.733 42.8493 208.666 42.2953 208.64 41.7139ZM216.526 38.7054C216.526 38.7054 214.049 35.8651 211.038 38.1039L216.526 38.7054ZM206.407 38.1795C206.407 38.1795 203.821 35.4437 200.899 37.8052L206.407 38.1795Z" fill="#002009"/>
<path d="M212.811 43.3979C213.237 43.3879 213.571 42.8447 213.556 42.1846C213.542 41.5246 213.185 40.9977 212.758 41.0077C212.332 41.0177 211.998 41.5609 212.013 42.2209C212.027 42.881 212.385 43.4079 212.811 43.3979Z" fill="#002009"/>
<path d="M203.995 43.2768C204.421 43.2668 204.755 42.7236 204.74 42.0636C204.726 41.4035 204.368 40.8766 203.942 40.8866C203.516 40.8966 203.182 41.4398 203.197 42.0998C203.211 42.7599 203.568 43.2868 203.995 43.2768Z" fill="#002009"/>
<path d="M213.217 16.4231C213.066 16.423 212.917 16.4017 212.772 16.3598C212.428 16.2191 212.116 16.0076 211.854 15.7381C211.593 15.4686 211.387 15.1469 211.25 14.7926C211.213 14.6967 211.214 14.5896 211.254 14.4947C211.293 14.3999 211.368 14.325 211.46 14.2864C211.553 14.2478 211.657 14.2487 211.749 14.2888C211.841 14.3289 211.914 14.4049 211.952 14.5004C211.956 14.5096 212.322 15.4214 212.978 15.6083C213.178 15.645 213.383 15.6334 213.577 15.5745C213.772 15.5156 213.951 15.411 214.099 15.2688C214.18 15.2065 214.28 15.1796 214.38 15.194C214.479 15.2085 214.569 15.2631 214.629 15.3458C214.69 15.4286 214.716 15.5327 214.702 15.6353C214.688 15.7379 214.635 15.8306 214.555 15.8929C214.177 16.2162 213.707 16.4025 213.217 16.4231ZM225.061 23.1475C224.447 23.1067 223.861 22.8705 223.383 22.4715C223.306 22.4054 223.257 22.3103 223.248 22.2071C223.238 22.104 223.269 22.0012 223.333 21.9213C223.397 21.8415 223.489 21.7912 223.589 21.7815C223.689 21.7717 223.788 21.8034 223.866 21.8695C224.26 22.209 224.767 22.3782 225.279 22.3418C225.472 22.2763 225.647 22.1655 225.791 22.0182C225.936 21.8708 226.045 21.6908 226.11 21.4925C226.131 21.4459 226.16 21.404 226.197 21.3692C226.233 21.3343 226.276 21.3072 226.323 21.2895C226.369 21.2717 226.419 21.2635 226.468 21.2655C226.518 21.2675 226.567 21.2796 226.612 21.301C226.657 21.3225 226.698 21.3529 226.731 21.3905C226.765 21.4281 226.791 21.4723 226.809 21.5204C226.826 21.5685 226.834 21.6196 226.832 21.6709C226.83 21.7221 226.818 21.7725 226.797 21.8191C226.687 22.129 226.507 22.4072 226.271 22.6307C226.036 22.8541 225.752 23.0164 225.444 23.104C225.318 23.1334 225.19 23.148 225.061 23.1475ZM217.86 26.9762C217.247 26.9355 216.661 26.6993 216.183 26.3002C216.106 26.2341 216.058 26.1391 216.048 26.0361C216.039 25.9331 216.07 25.8305 216.134 25.7509C216.198 25.6712 216.29 25.621 216.389 25.6113C216.489 25.6016 216.589 25.6331 216.666 25.699C217.062 26.0358 217.567 26.2044 218.079 26.1705C218.271 26.1051 218.447 25.9943 218.591 25.8469C218.735 25.6995 218.844 25.5196 218.909 25.3213C218.951 25.2272 219.028 25.1541 219.122 25.1182C219.216 25.0823 219.32 25.0865 219.411 25.1298C219.502 25.1731 219.573 25.252 219.608 25.3492C219.643 25.4463 219.639 25.5538 219.597 25.6479C219.487 25.9578 219.306 26.2361 219.071 26.4596C218.836 26.6831 218.552 26.8453 218.243 26.9328C218.118 26.9621 217.989 26.9767 217.86 26.9762ZM207.568 30.4472C206.954 30.4064 206.368 30.1702 205.891 29.7712L206.373 29.1699C206.768 29.5087 207.274 29.6773 207.786 29.6407C207.979 29.5754 208.154 29.4646 208.298 29.3172C208.443 29.1699 208.552 28.9898 208.617 28.7915L209.304 29.118C209.194 29.428 209.014 29.7063 208.778 29.9299C208.543 30.1535 208.259 30.316 207.951 30.4037C207.825 30.4327 207.697 30.4473 207.568 30.4472ZM222.085 34.6322C221.919 34.6324 221.755 34.6067 221.596 34.5559C221.257 34.4056 220.95 34.1853 220.695 33.9085C220.441 33.6317 220.244 33.3042 220.116 32.946C220.098 32.8979 220.09 32.8467 220.092 32.7955C220.094 32.7442 220.106 32.6938 220.126 32.6471C220.147 32.6005 220.177 32.5585 220.213 32.5235C220.249 32.4886 220.292 32.4614 220.339 32.4435C220.385 32.4257 220.435 32.4174 220.484 32.4193C220.534 32.4212 220.583 32.4331 220.628 32.4545C220.673 32.4759 220.714 32.5062 220.748 32.5438C220.782 32.5814 220.808 32.6255 220.825 32.6736C220.828 32.6827 221.171 33.6045 221.822 33.8097C222.021 33.8537 222.226 33.8487 222.423 33.7953C222.619 33.7419 222.801 33.6415 222.953 33.5022C222.993 33.4723 223.039 33.451 223.088 33.4394C223.136 33.4278 223.187 33.4263 223.236 33.4349C223.285 33.4434 223.332 33.4619 223.374 33.4893C223.417 33.5167 223.453 33.5524 223.482 33.5944C223.511 33.6364 223.531 33.6838 223.542 33.734C223.553 33.7842 223.554 33.8361 223.546 33.8868C223.537 33.9375 223.519 33.986 223.493 34.0295C223.466 34.0729 223.431 34.1105 223.39 34.1401C223.016 34.4408 222.559 34.6129 222.085 34.6322ZM203.345 14.1562C203.179 14.156 203.015 14.1303 202.857 14.0799C202.517 13.9296 202.21 13.7093 201.956 13.4325C201.701 13.1557 201.504 12.8282 201.376 12.47C201.341 12.3729 201.345 12.2654 201.387 12.1711C201.429 12.0769 201.505 12.0037 201.599 11.9676C201.693 11.9314 201.797 11.9354 201.889 11.9785C201.98 12.0217 202.051 12.1005 202.086 12.1976C202.089 12.2068 202.432 13.1285 203.082 13.3337C203.281 13.3762 203.486 13.3705 203.682 13.3171C203.878 13.2638 204.059 13.1642 204.212 13.0262C204.252 12.9957 204.298 12.9737 204.347 12.9616C204.396 12.9495 204.446 12.9475 204.496 12.9557C204.545 12.9639 204.593 12.9822 204.635 13.0095C204.678 13.0368 204.715 13.0726 204.744 13.1147C204.773 13.1569 204.794 13.2046 204.805 13.255C204.816 13.3055 204.817 13.3577 204.808 13.4087C204.8 13.4597 204.781 13.5083 204.754 13.5519C204.727 13.5955 204.692 13.6331 204.651 13.6626C204.276 13.9642 203.819 14.1369 203.345 14.1562ZM192.626 24.8451C192.461 24.8453 192.296 24.8196 192.138 24.7688C191.798 24.6183 191.492 24.3979 191.237 24.1211C190.983 23.8443 190.786 23.5169 190.658 23.1589C190.623 23.0619 190.628 22.9548 190.669 22.861C190.711 22.7671 190.787 22.6943 190.881 22.6582C190.975 22.6222 191.079 22.626 191.17 22.6688C191.261 22.7116 191.332 22.7899 191.367 22.8865C191.37 22.8957 191.713 23.8174 192.363 24.0226C192.562 24.0658 192.768 24.0606 192.964 24.0072C193.16 23.9538 193.342 23.8538 193.494 23.7151C193.535 23.6854 193.581 23.6643 193.629 23.6529C193.678 23.6414 193.728 23.64 193.777 23.6486C193.826 23.6573 193.873 23.6758 193.915 23.7031C193.957 23.7305 193.993 23.7661 194.022 23.808C194.051 23.8499 194.071 23.8973 194.082 23.9474C194.093 23.9974 194.095 24.0493 194.086 24.0999C194.078 24.1505 194.06 24.1989 194.033 24.2423C194.007 24.2857 193.972 24.3234 193.932 24.353C193.557 24.6537 193.101 24.8258 192.626 24.8451ZM191.529 35.8172C191.364 35.8173 191.199 35.7916 191.041 35.7409C190.701 35.5903 190.395 35.3699 190.14 35.0931C189.886 34.8163 189.689 34.489 189.561 34.1309C189.526 34.0338 189.53 33.9263 189.571 33.8321C189.613 33.7378 189.69 33.6646 189.784 33.6285C189.878 33.5924 189.982 33.5963 190.073 33.6395C190.165 33.6826 190.235 33.7614 190.27 33.8585C190.273 33.8677 190.616 34.7894 191.266 34.9946C191.465 35.0381 191.671 35.033 191.867 34.9796C192.063 34.9262 192.245 34.826 192.397 34.6872C192.438 34.6575 192.484 34.6364 192.532 34.625C192.581 34.6136 192.631 34.6122 192.68 34.6209C192.729 34.6295 192.776 34.648 192.818 34.6754C192.86 34.7027 192.896 34.7384 192.925 34.7802C192.954 34.8221 192.974 34.8694 192.985 34.9195C192.996 34.9695 192.998 35.0213 192.989 35.0719C192.981 35.1225 192.963 35.1709 192.936 35.2143C192.91 35.2578 192.875 35.2954 192.835 35.325C192.46 35.6258 192.004 35.7978 191.529 35.8172ZM201.376 22.1609C200.696 22.1003 200.06 21.7891 199.584 21.2842C199.514 21.2097 199.476 21.1096 199.478 21.006C199.479 20.9024 199.521 20.8038 199.593 20.7318C199.666 20.6599 199.762 20.6205 199.863 20.6224C199.963 20.6242 200.059 20.6672 200.128 20.7417C200.488 21.1187 200.97 21.344 201.481 21.3735C201.68 21.3308 201.866 21.241 202.026 21.1111C202.185 20.9811 202.313 20.8147 202.399 20.625C202.451 20.5365 202.535 20.473 202.633 20.4483C202.73 20.4237 202.833 20.4399 202.919 20.4935C203.004 20.547 203.066 20.6336 203.09 20.7341C203.114 20.8345 203.099 20.9408 203.047 21.0294C202.904 21.3246 202.694 21.5803 202.436 21.7752C202.178 21.9702 201.878 22.0987 201.563 22.1502C201.501 22.1572 201.438 22.1607 201.376 22.1609Z" fill="#56130D"/>
<path d="M194.866 44.7576C194.837 44.426 194.909 44.0933 195.072 43.8061C195.238 43.4927 195.497 43.2424 195.811 43.0919C195.976 43.0145 196.156 42.9737 196.338 42.9721C196.52 42.9705 196.7 43.0082 196.867 43.0828C197.173 43.211 197.423 43.4505 197.57 43.7561C197.24 43.7283 196.976 43.6676 196.734 43.6768C196.52 43.6678 196.308 43.7126 196.114 43.8072C195.661 44.0681 195.242 44.3875 194.866 44.7576ZM217.945 35.8732C217.945 35.8732 214.305 34.9452 213.262 28.8156C213.262 28.8156 212.943 36.35 197.678 35.5888L197.536 42.2328L194 37.0767C194 37.0767 197.532 23.2152 209.561 24.624C211.488 24.9059 213.317 25.6814 214.879 26.8799C216.798 28.3104 218.406 30.1393 219.599 32.249C220.792 34.3588 221.545 36.7028 221.809 39.1306L221.968 40.4631C221.968 40.4631 219.363 36.1557 217.5 43.869L217.945 35.8732Z" fill="#002009"/>
<path d="M198.176 30.1327C197.563 30.092 196.977 29.8558 196.499 29.4567C196.422 29.3906 196.373 29.2956 196.364 29.1926C196.355 29.0896 196.386 28.987 196.45 28.9073C196.513 28.8277 196.605 28.7775 196.705 28.7678C196.805 28.758 196.904 28.7896 196.982 28.8554C197.375 29.1969 197.882 29.3661 198.394 29.327C198.587 29.2617 198.763 29.151 198.907 29.0036C199.051 28.8562 199.161 28.6762 199.226 28.4778C199.268 28.3837 199.344 28.3106 199.438 28.2747C199.533 28.2388 199.637 28.2429 199.728 28.2863C199.819 28.3296 199.89 28.4085 199.925 28.5056C199.959 28.6028 199.955 28.7102 199.913 28.8043C199.803 29.1143 199.623 29.3926 199.387 29.6161C199.152 29.8396 198.868 30.0018 198.559 30.0892C198.434 30.1186 198.305 30.1332 198.176 30.1327ZM208.686 29.8863C208.073 29.8455 207.487 29.6093 207.009 29.2102C206.932 29.144 206.884 29.0491 206.875 28.9462C206.866 28.8434 206.896 28.741 206.96 28.6615C207.024 28.5819 207.116 28.5318 207.215 28.5219C207.315 28.5121 207.414 28.5434 207.492 28.609C207.888 28.9455 208.393 29.1141 208.904 29.0805C209.097 29.0151 209.272 28.9043 209.417 28.7569C209.561 28.6096 209.67 28.4296 209.735 28.2313C209.777 28.1372 209.854 28.0642 209.948 28.0283C210.042 27.9923 210.146 27.9965 210.237 28.0398C210.328 28.0831 210.399 28.162 210.434 28.2592C210.469 28.3563 210.465 28.4638 210.423 28.5579C210.312 28.8678 210.132 29.1461 209.897 29.3696C209.661 29.5931 209.378 29.7553 209.069 29.8428C208.944 29.8722 208.815 29.8867 208.686 29.8863ZM225.482 42.2431C224.869 42.2023 224.283 41.9661 223.804 41.5671C223.727 41.5009 223.679 41.4059 223.67 41.303C223.661 41.2 223.691 41.0975 223.755 41.0179C223.819 40.9382 223.911 40.888 224.011 40.8781C224.11 40.8682 224.21 40.8995 224.287 40.9651C224.682 41.3034 225.188 41.4725 225.7 41.4374C225.893 41.372 226.069 41.2612 226.213 41.1138C226.357 40.9664 226.466 40.7865 226.531 40.5882C226.573 40.4941 226.65 40.421 226.744 40.3851C226.838 40.3492 226.942 40.3534 227.033 40.3967C227.124 40.44 227.195 40.5189 227.23 40.616C227.265 40.7132 227.261 40.8207 227.219 40.9148C227.108 41.2246 226.928 41.5028 226.693 41.7263C226.457 41.9498 226.174 42.1121 225.865 42.1997C225.74 42.229 225.611 42.2436 225.482 42.2431Z" fill="#56130D"/>
<path d="M221.028 44.1427C220.636 43.7907 220.203 43.4915 219.739 43.2522C219.542 43.1666 219.328 43.1319 219.115 43.1511C218.873 43.153 218.611 43.2263 218.283 43.2694C218.416 42.9572 218.655 42.7062 218.956 42.5636C219.119 42.4814 219.298 42.4354 219.479 42.4285C219.661 42.4216 219.842 42.454 220.011 42.5236C220.331 42.6589 220.601 42.8968 220.78 43.2023C220.956 43.4813 221.043 43.8102 221.028 44.1427Z" fill="#002009"/>
<path d="M220.315 40.389C220.138 38.3657 219.783 36.3633 219.255 34.4063C218.759 32.4817 217.992 30.6426 216.979 28.9474C216.009 27.3026 214.615 25.9689 212.952 25.0957C211.274 24.2855 209.414 23.9631 207.571 24.1633C205.697 24.3381 203.878 24.9149 202.232 25.8567C200.585 26.7985 199.147 28.0847 198.01 29.6329C196.854 31.2095 196.043 33.0253 195.631 34.956C195.223 36.9338 195.106 38.9636 195.283 40.9773C194.792 38.9652 194.662 36.8775 194.899 34.8172C195.159 32.7079 195.895 30.6909 197.046 28.9279C198.217 27.1443 199.758 25.6517 201.556 24.5585C203.355 23.4653 205.367 22.7988 207.446 22.6072C208.494 22.5261 209.548 22.5746 210.585 22.7518C211.637 22.9219 212.655 23.2691 213.598 23.7796C215.459 24.8187 216.984 26.3971 217.987 28.3202C218.961 30.1652 219.633 32.1638 219.975 34.235C220.332 36.2642 220.447 38.331 220.315 40.389Z" fill="#23893E"/>
<path d="M212.951 47.9773C213.245 47.9668 213.524 47.8387 213.729 47.6201C213.934 47.4014 214.048 47.1093 214.048 46.8053C214.048 46.5014 213.934 46.2093 213.729 45.9906C213.524 45.772 213.245 45.6439 212.951 45.6334C212.657 45.6439 212.378 45.772 212.173 45.9906C211.969 46.2093 211.854 46.5014 211.854 46.8053C211.854 47.1093 211.969 47.4014 212.173 47.6201C212.378 47.8387 212.657 47.9668 212.951 47.9773ZM203.414 47.2273C203.708 47.2167 203.987 47.0886 204.191 46.87C204.396 46.6514 204.51 46.3593 204.51 46.0553C204.51 45.7513 204.396 45.4592 204.191 45.2406C203.987 45.0219 203.708 44.8938 203.414 44.8833C203.119 44.8938 202.84 45.0219 202.636 45.2406C202.431 45.4592 202.317 45.7513 202.317 46.0553C202.317 46.3593 202.431 46.6514 202.636 46.87C202.84 47.0886 203.119 47.2167 203.414 47.2273Z" fill="#602722"/>
<path d="M231.373 262.994C231.373 262.994 216.522 263.282 212.98 259.833V263H206.44C206.44 263 204.385 251.71 207.865 252.289C211.345 252.868 223.732 262.63 224.01 255.921L228.87 258.503C229.624 258.903 230.256 259.511 230.698 260.258C231.14 261.006 231.373 261.864 231.373 262.74V262.994ZM156.905 262.994C156.905 262.994 171.757 263.282 175.299 259.833V263H181.839C181.839 263 183.894 251.71 180.414 252.289C176.934 252.868 164.547 262.63 164.269 255.921L159.409 258.503C158.655 258.903 158.022 259.511 157.581 260.258C157.139 261.006 156.905 261.864 156.905 262.74V262.994Z" fill="#FBBC05"/>
<path d="M214.32 113.599C214.239 113.599 214.16 113.572 214.095 113.522C214.03 113.472 213.982 113.402 213.958 113.322L213.628 112.2C213.613 112.151 213.608 112.099 213.613 112.048C213.617 111.996 213.632 111.946 213.655 111.901C213.678 111.855 213.71 111.815 213.749 111.782C213.787 111.749 213.832 111.724 213.88 111.709C213.927 111.694 213.978 111.689 214.027 111.694C214.077 111.7 214.125 111.715 214.169 111.739C214.213 111.764 214.252 111.797 214.284 111.837C214.315 111.877 214.339 111.923 214.353 111.973L214.682 113.094C214.7 113.153 214.703 113.214 214.693 113.275C214.683 113.335 214.66 113.392 214.625 113.441C214.589 113.49 214.543 113.53 214.491 113.557C214.438 113.584 214.379 113.599 214.32 113.599ZM216.738 121.832C216.656 121.832 216.577 121.805 216.512 121.755C216.447 121.706 216.399 121.635 216.375 121.555L215.771 119.497C215.742 119.398 215.753 119.291 215.8 119.201C215.848 119.11 215.928 119.042 216.024 119.012C216.119 118.982 216.222 118.992 216.311 119.041C216.399 119.089 216.465 119.171 216.495 119.269L217.1 121.328C217.117 121.386 217.121 121.448 217.111 121.508C217.101 121.568 217.077 121.625 217.042 121.674C217.007 121.723 216.961 121.763 216.908 121.791C216.855 121.818 216.797 121.832 216.738 121.832ZM215.529 117.716C215.448 117.716 215.369 117.689 215.303 117.639C215.238 117.589 215.19 117.519 215.167 117.439L214.562 115.38C214.534 115.281 214.545 115.175 214.592 115.084C214.639 114.994 214.719 114.926 214.815 114.896C214.911 114.866 215.014 114.876 215.102 114.924C215.19 114.972 215.257 115.055 215.286 115.153L215.891 117.211C215.908 117.27 215.912 117.332 215.902 117.392C215.892 117.452 215.868 117.509 215.833 117.558C215.798 117.607 215.752 117.647 215.699 117.674C215.646 117.702 215.588 117.716 215.529 117.716ZM217.671 125.012C217.59 125.012 217.511 124.985 217.445 124.935C217.38 124.885 217.332 124.814 217.309 124.734L216.98 123.612C216.965 123.563 216.96 123.511 216.964 123.46C216.969 123.409 216.984 123.359 217.007 123.313C217.03 123.268 217.062 123.227 217.101 123.194C217.139 123.162 217.184 123.137 217.232 123.122C217.28 123.107 217.33 123.102 217.38 123.108C217.429 123.113 217.477 123.128 217.521 123.153C217.565 123.177 217.604 123.211 217.636 123.251C217.667 123.291 217.69 123.337 217.704 123.386L218.033 124.508C218.048 124.557 218.053 124.609 218.048 124.66C218.043 124.711 218.028 124.76 218.005 124.805C217.981 124.851 217.949 124.891 217.911 124.923C217.872 124.956 217.828 124.98 217.78 124.995C217.745 125.006 217.708 125.012 217.671 125.012Z" fill="#B7291D"/>
<path d="M223.65 79.3534C223.214 80.8829 222.641 82.3676 221.94 83.7884C221.27 85.2248 220.47 86.5933 219.553 87.8762C219.988 86.3461 220.56 84.8613 221.263 83.4412C221.935 82.0057 222.734 80.6373 223.65 79.3534ZM188.534 87.5111C187.745 85.7752 187.087 83.9792 186.564 82.1391C186.009 80.3091 185.593 78.4373 185.318 76.5406C186.109 78.276 186.768 80.0722 187.288 81.9129C187.842 83.7433 188.258 85.6148 188.534 87.5111Z" fill="#23893E"/>
<path d="M211.601 49.8543C211.601 49.8543 209.496 54.7766 205.272 50.6981L211.601 49.8543Z" fill="#002009"/>
<path d="M281.484 114.329V243.34H264.771L262.591 130.831H258.231L249.874 243.34H233.161L240.428 114.329H281.484Z" fill="#FBBC05"/>
<path d="M238.429 67.4501C238.585 69.2161 238.658 70.9817 238.719 72.7477C238.788 74.5133 238.798 76.2792 238.807 78.0448C238.799 79.8104 238.789 81.5764 238.72 83.342L238.615 85.9908C238.552 86.8736 238.515 87.7567 238.429 88.6395C238.343 87.7567 238.306 86.8736 238.244 85.9908L238.138 83.342C238.069 81.5764 238.059 79.8104 238.051 78.0448C238.06 76.2792 238.07 74.5133 238.139 72.7477C238.2 70.9817 238.273 69.2161 238.429 67.4501ZM282.756 68.3879C282.942 71.5894 283.045 74.7922 283.136 77.9949C283.229 81.198 283.253 84.4014 283.315 87.6045C283.316 90.808 283.349 94.0115 283.319 97.2153L283.259 102.021C283.211 103.624 283.19 105.226 283.119 106.828C283.018 105.228 282.966 103.626 282.888 102.025L282.737 97.2214C282.647 94.0183 282.619 90.8153 282.559 87.6118C282.561 84.4083 282.525 81.2048 282.557 78.001C282.587 74.7967 282.63 71.5928 282.756 68.3879Z" fill="#2C63BF"/>
<path d="M246.241 247.841C246.241 247.841 250.782 260.967 246.967 262.842H243.152C243.152 262.842 241.336 257.591 238.792 262.842H215.539C215.539 262.842 214.086 258.716 219.717 256.841C225.349 254.966 234.796 247.841 234.796 247.841H246.241Z" fill="#34A853"/>
<path d="M246.968 243.34L246.241 247.841H234.796V243.34H246.968Z" fill="#B8534B"/>
<path d="M267.581 247.841C267.581 247.841 263.04 260.967 266.855 262.842H270.67C270.67 262.842 272.486 257.591 275.03 262.842H298.283C298.283 262.842 299.736 258.716 294.105 256.841C288.473 254.966 279.026 247.841 279.026 247.841H267.581Z" fill="#34A853"/>
<path d="M266.855 243.34L267.581 247.841H279.026V243.34H266.855Z" fill="#B8534B"/>
<path d="M257.179 130.509C258.394 130.234 259.636 130.103 260.88 130.119C262.125 130.101 263.367 130.232 264.582 130.509C263.367 130.787 262.125 130.918 260.88 130.9C259.636 130.916 258.394 130.785 257.179 130.509Z" fill="#EDB206"/>
<path d="M236.201 86.7299L238.429 89.014L238.55 97.2008C238.55 97.2008 231.874 100.961 229.726 94.9173L236.201 86.7299Z" fill="#8C443E"/>
<path d="M196.57 53.0915H193.435V46.152H196.57V53.0915ZM194.003 52.5055H196.002V46.738H194.003V52.5055ZM222.252 52.7016H219.116V45.7621H222.252V52.7016ZM219.684 52.1156H221.684V46.3481H219.684V52.1156Z" fill="#FBBC05"/>
<path d="M219.682 46.3385V45.5211H221.588C221.158 46.2825 220.484 46.8649 219.682 47.1678V46.3385ZM196.02 47.6626V46.1364H194.222C194.629 46.8471 195.266 47.3874 196.02 47.6626Z" fill="#8C443E"/>
<path d="M68.5437 63.8009L69.5074 66.2174C69.736 66.7877 69.817 67.4095 69.7425 68.0218C69.668 68.6341 69.4406 69.216 69.0826 69.7102C68.9342 69.92 68.7613 70.1101 68.5678 70.2762C68.2878 70.5286 67.9696 70.7317 67.6257 70.8774L64.2229 72.3232C64.1034 72.3753 63.9801 72.4174 63.8541 72.4489C63.6284 72.5242 63.3936 72.5667 63.1565 72.5753C62.4306 72.634 61.7054 72.453 61.0857 72.0586C60.4659 71.6642 59.9835 71.0767 59.7083 70.3809L58.7446 67.9644C58.5355 67.439 58.537 66.8495 58.7487 66.3253C58.9604 65.8011 59.365 65.385 59.8736 65.1684L65.8349 62.6355C66.3439 62.4197 66.915 62.4213 67.4229 62.6398C67.9307 62.8583 68.3339 63.2759 68.5437 63.8009Z" fill="#FEEEC0"/>
<path d="M69.0824 69.7101C68.934 69.9199 68.7611 70.11 68.5676 70.2761L66.667 65.6789C66.6324 65.592 66.6324 65.4944 66.6671 65.4075C66.7018 65.3205 66.7683 65.2512 66.8522 65.2146C66.9361 65.1779 67.0306 65.1769 67.1152 65.2118C67.1998 65.2466 67.2677 65.3145 67.304 65.4007L69.0824 69.7101ZM67.4208 70.9642L66.7812 71.236L64.8242 66.5162C64.7895 66.4286 64.7899 66.3305 64.8251 66.2432C64.8604 66.1558 64.9277 66.0865 65.0124 66.0502C65.0537 66.0319 65.0982 66.0222 65.1432 66.0218C65.1882 66.0213 65.2329 66.03 65.2746 66.0474C65.3163 66.0649 65.3543 66.0906 65.3863 66.1233C65.4183 66.156 65.4437 66.1948 65.4611 66.2377L67.4208 70.9642ZM65.5403 71.7632L64.9007 72.035L62.9948 67.4247C62.9765 67.3821 62.9666 67.336 62.9659 67.2894C62.9651 67.2428 62.9735 67.1965 62.9905 67.1532C63.0074 67.11 63.0326 67.0707 63.0646 67.0378C63.0966 67.0048 63.1347 66.9788 63.1766 66.9614L63.183 66.9587C63.2668 66.9242 63.3602 66.9245 63.4438 66.9594C63.5274 66.9943 63.5948 67.0612 63.6317 67.1461L65.5403 71.7632ZM63.8539 72.4488C63.6282 72.524 63.3934 72.5666 63.1563 72.5752L61.1979 67.833C61.1615 67.7462 61.16 67.648 61.1935 67.5599C61.2271 67.4718 61.293 67.401 61.3769 67.363C61.419 67.3431 61.4646 67.3323 61.5108 67.3312C61.5571 67.3301 61.603 67.3388 61.6459 67.3568C61.6888 67.3747 61.7277 67.4015 61.7601 67.4355C61.7926 67.4695 61.818 67.51 61.8348 67.5545L63.8539 72.4488Z" fill="#002009"/>
<path d="M224.395 67.0705L223.415 69.4801C223.185 70.0495 222.815 70.5474 222.342 70.9248C221.869 71.3022 221.309 71.5462 220.717 71.6328C220.468 71.6722 220.216 71.6797 219.965 71.6553C219.594 71.6285 219.23 71.5389 218.888 71.39L215.495 69.9198C215.375 69.8693 215.259 69.8087 215.148 69.7387C214.938 69.6266 214.743 69.4848 214.57 69.3174C214.017 68.8277 213.63 68.1694 213.464 67.4377C213.298 66.706 213.361 65.9387 213.645 65.2465L214.624 62.837C214.838 62.3135 215.244 61.8988 215.753 61.6839C216.262 61.4691 216.833 61.4716 217.341 61.691L223.285 64.2665C223.792 64.4868 224.194 64.9057 224.402 65.4314C224.61 65.9572 224.608 66.5467 224.395 67.0705Z" fill="#FEEEC0"/>
<path d="M220.717 71.6328C220.468 71.6722 220.216 71.6797 219.965 71.6553L221.782 67.0221C221.817 66.9356 221.884 66.8669 221.968 66.831C222.053 66.7952 222.147 66.795 222.231 66.8305C222.316 66.866 222.383 66.9344 222.419 67.0208C222.454 67.1072 222.456 67.2046 222.422 67.292L220.717 71.6328ZM218.684 71.3015L218.046 71.0252L219.907 66.2643C219.943 66.1771 220.01 66.1082 220.095 66.0724C220.18 66.0366 220.275 66.0369 220.36 66.0733C220.402 66.0906 220.44 66.1163 220.472 66.1489C220.504 66.1815 220.529 66.2203 220.547 66.2632C220.564 66.306 220.573 66.352 220.573 66.3984C220.574 66.4449 220.565 66.4909 220.548 66.5338L218.684 71.3015ZM216.809 70.4891L216.171 70.2128L217.993 65.5664C218.009 65.523 218.034 65.4833 218.065 65.4499C218.097 65.4164 218.135 65.3899 218.176 65.3718C218.218 65.3537 218.263 65.3445 218.308 65.3446C218.353 65.3448 218.398 65.3543 218.439 65.3727L218.446 65.3754C218.528 65.4124 218.594 65.481 218.629 65.5668C218.664 65.6526 218.666 65.7491 218.633 65.836L216.809 70.4891ZM215.148 69.7387C214.938 69.6266 214.743 69.4848 214.57 69.3174L216.445 64.5397C216.479 64.4518 216.545 64.3814 216.63 64.3438C216.714 64.3063 216.809 64.3046 216.894 64.3392C216.937 64.3559 216.977 64.3816 217.01 64.4147C217.044 64.4478 217.07 64.4876 217.088 64.5316C217.106 64.5756 217.115 64.6229 217.115 64.6707C217.114 64.7184 217.104 64.7656 217.086 64.8093L215.148 69.7387Z" fill="#002009"/>
<path d="M281.731 50.0956L280.752 52.5052C280.521 53.0746 280.151 53.5725 279.678 53.9499C279.205 54.3273 278.645 54.5713 278.053 54.6579C277.804 54.6973 277.552 54.7048 277.301 54.6803C276.931 54.6536 276.567 54.5639 276.224 54.4151L272.831 52.9449C272.711 52.8944 272.595 52.8338 272.485 52.7638C272.274 52.6517 272.079 52.5099 271.906 52.3425C271.353 51.8527 270.966 51.1945 270.8 50.4628C270.634 49.7311 270.697 48.9638 270.981 48.2716L271.961 45.862C272.174 45.3386 272.58 44.9239 273.089 44.709C273.599 44.4941 274.17 44.4967 274.677 44.7161L280.621 47.2916C281.128 47.5118 281.53 47.9308 281.738 48.4565C281.947 48.9822 281.944 49.5717 281.731 50.0956Z" fill="#8C443E"/>
<path d="M278.053 54.6579C277.804 54.6973 277.552 54.7048 277.301 54.6803L279.118 50.0472C279.153 49.9607 279.221 49.892 279.305 49.8561C279.389 49.8203 279.483 49.8201 279.567 49.8556C279.652 49.8911 279.719 49.9595 279.755 50.0459C279.791 50.1323 279.792 50.2297 279.758 50.3171L278.053 54.6579ZM276.02 54.3266L275.382 54.0503L277.243 49.2893C277.279 49.2022 277.347 49.1332 277.431 49.0975C277.516 49.0617 277.611 49.062 277.696 49.0984C277.738 49.1157 277.776 49.1414 277.808 49.174C277.84 49.2066 277.865 49.2454 277.883 49.2883C277.9 49.3311 277.909 49.377 277.91 49.4235C277.91 49.47 277.901 49.516 277.884 49.5589L276.02 54.3266ZM274.145 53.5142L273.507 53.2378L275.329 48.5915C275.345 48.548 275.37 48.5084 275.402 48.475C275.433 48.4415 275.471 48.415 275.512 48.3969C275.554 48.3788 275.599 48.3696 275.644 48.3697C275.689 48.3699 275.734 48.3794 275.775 48.3978L275.782 48.4005C275.865 48.4375 275.93 48.5061 275.965 48.5919C276 48.6777 276.002 48.7742 275.97 48.8611L274.145 53.5142ZM272.485 52.7638C272.274 52.6517 272.079 52.5099 271.906 52.3425L273.781 47.5648C273.815 47.4769 273.882 47.4065 273.966 47.3689C274.05 47.3314 274.145 47.3297 274.23 47.3642C274.274 47.381 274.313 47.4067 274.347 47.4398C274.38 47.4729 274.406 47.5126 274.424 47.5567C274.442 47.6007 274.451 47.648 274.451 47.6958C274.45 47.7435 274.44 47.7907 274.422 47.8343L272.485 52.7638Z" fill="#002009"/>
<path d="M195.991 60.9146L196.902 63.3529C197.118 63.9283 197.185 64.5519 197.097 65.1623C197.01 65.7727 196.77 66.3491 196.401 66.8349C196.248 67.0412 196.071 67.2273 195.874 67.3888C195.588 67.6347 195.266 67.8303 194.919 67.968L191.485 69.3343C191.365 69.3836 191.241 69.4228 191.114 69.4514C190.887 69.5214 190.651 69.5585 190.414 69.5616C189.687 69.6034 188.966 69.4056 188.355 68.9969C187.744 68.5881 187.274 67.9896 187.014 67.2876L186.103 64.8492C185.906 64.3192 185.92 63.7299 186.143 63.2107C186.366 62.6916 186.78 62.285 187.293 62.0803L193.308 59.6866C193.822 59.4828 194.393 59.4976 194.896 59.7278C195.399 59.9581 195.793 60.3849 195.991 60.9146Z" fill="#B8534B"/>
<path d="M196.401 66.8349C196.248 67.0412 196.071 67.2272 195.874 67.3888L194.074 62.7486C194.041 62.6609 194.043 62.5633 194.08 62.4772C194.116 62.3911 194.184 62.3233 194.269 62.2887C194.354 62.254 194.448 62.2552 194.532 62.292C194.616 62.3288 194.682 62.3983 194.717 62.4853L196.401 66.8349ZM194.712 68.0501L194.067 68.307L192.213 63.5429C192.181 63.4545 192.183 63.3564 192.22 63.2699C192.257 63.1834 192.326 63.1156 192.412 63.0814C192.453 63.064 192.498 63.0554 192.543 63.0559C192.588 63.0565 192.632 63.0663 192.674 63.0847C192.715 63.1031 192.752 63.1297 192.784 63.1631C192.815 63.1965 192.84 63.236 192.856 63.2792L194.712 68.0501ZM192.815 68.8052L192.169 69.062L190.365 64.4086C190.347 64.3655 190.338 64.3193 190.339 64.2727C190.339 64.226 190.348 64.1799 190.366 64.1371C190.384 64.0943 190.41 64.0556 190.443 64.0234C190.475 63.9912 190.514 63.9661 190.556 63.9496L190.563 63.9471C190.647 63.9145 190.741 63.917 190.824 63.9538C190.906 63.9907 190.972 64.0591 191.007 64.1449L192.815 68.8052ZM191.114 69.4514C190.886 69.5214 190.651 69.5584 190.414 69.5616L188.559 64.7751C188.525 64.6874 188.525 64.5892 188.561 64.5019C188.596 64.4147 188.664 64.3454 188.748 64.3093C188.791 64.2904 188.837 64.2806 188.883 64.2806C188.929 64.2807 188.975 64.2904 189.017 64.3093C189.06 64.3283 189.098 64.356 189.13 64.3907C189.162 64.4255 189.186 64.4665 189.202 64.5114L191.114 69.4514Z" fill="#002009"/>
<path d="M0 262.842H327" stroke="#020202" stroke-miterlimit="10"/>
</svg>
