<svg width="32" height="32" viewBox="0 0 32 32" fill="none" xmlns="http://www.w3.org/2000/svg">
<g clip-path="url(#clip0_1502_204)">
<path d="M1.33331 5.33335V13.3334M1.33331 13.3334H9.33331M1.33331 13.3334L7.51998 7.52002C8.95298 6.0863 10.7258 5.03896 12.6731 4.47572C14.6203 3.91247 16.6785 3.85169 18.6556 4.29903C20.6327 4.74637 22.4642 5.68726 23.9794 7.03391C25.4945 8.38056 26.6438 10.0891 27.32 12M30.6666 26.6667V18.6667M30.6666 18.6667H22.6666M30.6666 18.6667L24.48 24.48C23.047 25.9137 21.2741 26.9611 19.3269 27.5243C17.3797 28.0876 15.3215 28.1484 13.3444 27.701C11.3673 27.2537 9.53571 26.3128 8.0206 24.9661C6.50549 23.6195 5.3562 21.911 4.67998 20" stroke="#3E3E3E" stroke-width="3" stroke-linecap="round" stroke-linejoin="round"/>
</g>
<defs>
<clipPath id="clip0_1502_204">
<rect width="32" height="32" fill="white"/>
</clipPath>
</defs>
</svg>
